<?xml version="1.0" standalone="no"?>
<!DOCTYPE svg PUBLIC "-//W3C//DTD SVG 1.1//EN" "http://www.w3.org/Graphics/SVG/1.1/DTD/svg11.dtd" >
<svg xmlns="http://www.w3.org/2000/svg">
<metadata>Generated by IcoMoon</metadata>
<defs>
<font id="MusicWhereIAm" horiz-adv-x="1024">
<font-face units-per-em="1024" ascent="960" descent="-64" />
<missing-glyph horiz-adv-x="1024" />
<glyph unicode="&#x20;" d="" horiz-adv-x="512" />
<glyph unicode="&#x21;" d="M0.806 90.336c-0.244 2.532-0.452 5.070-0.584 7.63 0.13-2.56 0.34-5.098 0.584-7.63zM235.908 394.852c92.010-2.738 153.734 92.698 137.862 213.198-15.894 120.48-103.396 217.168-195.408 219.922-92.026 2.73-153.74-89.482-137.852-210 15.882-120.468 103.352-220.374 195.398-223.12zM1024 704v85.31c0 93.88-76.782 170.69-170.658 170.69h-682.656c-92.276 0-168.012-74.232-170.564-165.926 58.362 51.386 139.324 94.316 222.874 94.316 89.304 0 357.244 0 357.244 0l-79.948-67.618h-113.268c75.13-28.804 115.156-116.124 115.156-205.722 0-75.248-41.81-139.954-100.888-185.968-57.644-44.902-68.572-63.708-68.572-101.878 0-32.578 61.746-88 94.032-110.788 94.382-66.538 124.916-128.312 124.916-231.456 0-16.428-2.042-32.83-6.066-48.96h307.742c93.874 0 170.656 76.75 170.656 170.69v533.308h-192v-191.998h-64v192h-191.998v64h191.998v192h64v-192h192zM185.886 194.064c21.614 0 41.422 0.59 61.936 0.59-27.146 26.334-48.626 58.6-48.626 98.38 0 23.608 7.564 46.336 18.134 66.52-10.782-0.77-21.79-0.994-33.126-0.994-74.356 0-137.506 24.076-184.204 63.854v-67.242l0.006-201.73c53.44 25.374 116.888 40.622 185.88 40.622zM3.42 72.742c-1.112 5.458-1.966 11.006-2.542 16.634 0.574-5.628 1.43-11.176 2.542-16.634zM455.45 7.154c-15.058 58.806-68.454 87.964-142.888 139.568-27.072 8.732-56.894 13.874-88.894 14.208-89.618 0.964-173.108-34.942-220.216-88.372 15.92-77.706 85.034-136.558 167.234-136.558h286.444c1.816 11.128 2.696 22.632 2.696 34.432 0 12.534-1.534 24.792-4.376 36.722z" />
<glyph unicode="&#x23;" d="M626.384 754.064h91.36v-34.816h-91.36v34.816zM626.384 700.144h91.36v-34.816h-91.36v34.816zM626.384 646.24h91.36v-34.816h-91.36v34.816zM626.384 592.336h91.36v-34.816h-91.36v34.816zM626.384 538.416h91.36v-34.816h-91.36v34.816zM626.384 484.512h91.36v-34.816h-91.36v34.816zM738.144 700.144h91.36v-34.816h-91.36v34.816zM738.144 646.24h91.36v-34.816h-91.36v34.816zM738.144 592.336h91.36v-34.816h-91.36v34.816zM738.144 538.416h91.36v-34.816h-91.36v34.816zM738.144 484.512h91.36v-34.816h-91.36v34.816zM849.232 592.336h91.36v-34.816h-91.36v34.816zM849.232 538.416h91.36v-34.816h-91.36v34.816zM849.232 484.512h91.36v-34.816h-91.36v34.816zM514.912 646.24h91.36v-34.816h-91.36v34.816zM514.912 592.336h91.36v-34.816h-91.36v34.816zM514.912 538.416h91.36v-34.816h-91.36v34.816zM514.912 484.512h91.36v-34.816h-91.36v34.816zM403.424 861.888h91.36v-34.816h-91.36v34.816zM403.424 807.968h91.36v-34.816h-91.36v34.816zM403.424 754.064h91.36v-34.816h-91.36v34.816zM403.424 700.144h91.36v-34.816h-91.36v34.816zM403.424 646.24h91.36v-34.816h-91.36v34.816zM403.424 592.336h91.36v-34.816h-91.36v34.816zM403.424 538.416h91.36v-34.816h-91.36v34.816zM403.424 484.512h91.36v-34.816h-91.36v34.816zM291.952 700.144h91.36v-34.816h-91.36v34.816zM291.952 646.24h91.36v-34.816h-91.36v34.816zM291.952 592.336h91.36v-34.816h-91.36v34.816zM291.952 538.416h91.36v-34.816h-91.36v34.816zM291.952 484.512h91.36v-34.816h-91.36v34.816zM181.136 592.336h91.36v-34.816h-91.36v34.816zM181.136 538.416h91.36v-34.816h-91.36v34.816zM181.136 484.512h91.36v-34.816h-91.36v34.816zM70.336 538.416h91.36v-34.816h-91.36v34.816zM70.336 484.512h91.36v-34.816h-91.36v34.816zM626.384 149.392h91.36v-34.816h-91.36v34.816zM626.384 203.296h91.36v-34.816h-91.36v34.816zM626.384 257.216h91.36v-34.816h-91.36v34.816zM626.384 311.12h91.36v-34.816h-91.36v34.816zM626.384 365.024h91.36v-34.816h-91.36v34.816zM738.144 203.296h91.36v-34.816h-91.36v34.816zM738.144 257.216h91.36v-34.816h-91.36v34.816zM738.144 311.12h91.36v-34.816h-91.36v34.816zM738.144 365.024h91.36v-34.816h-91.36v34.816zM849.232 311.12h91.36v-34.816h-91.36v34.816zM849.232 365.024h91.36v-34.816h-91.36v34.816zM514.912 257.216h91.36v-34.816h-91.36v34.816zM514.912 311.12h91.36v-34.816h-91.36v34.816zM514.912 365.024h91.36v-34.816h-91.36v34.816zM403.424 41.568h91.36v-34.816h-91.36v34.816zM403.424 95.488h91.36v-34.816h-91.36v34.816zM403.424 149.392h91.36v-34.816h-91.36v34.816zM403.424 203.296h91.36v-34.816h-91.36v34.816zM403.424 257.216h91.36v-34.816h-91.36v34.816zM403.424 311.12h91.36v-34.816h-91.36v34.816zM403.424 365.024h91.36v-34.816h-91.36v34.816zM291.952 203.296h91.36v-34.816h-91.36v34.816zM291.952 257.216h91.36v-34.816h-91.36v34.816zM291.952 311.12h91.36v-34.816h-91.36v34.816zM291.952 365.024h91.36v-34.816h-91.36v34.816zM181.136 311.12h91.36v-34.816h-91.36v34.816zM181.136 365.024h91.36v-34.816h-91.36v34.816zM70.336 365.024h91.36v-34.816h-91.36v34.816zM10.624 417.344h59.712v-33.216h91.36v33.216h19.44v-33.216h91.36v33.216h19.456v-33.216h91.36v33.216h20.112v-33.216h91.376v33.216h20.112v-33.216h91.36v33.216h20.112v-33.216h91.36v33.216h20.4v-33.216h91.376v33.216h19.712v-33.216h91.376v33.216h63.456v32h-993.44z" />
<glyph unicode="&#x24;" d="M585.574 741.582c-21.402-20.89-230.502-240.436-230.502-240.436-11.418-11.162-17.1-25.754-17.1-40.346s5.682-29.184 17.1-40.346c0 0 209.102-219.546 230.502-240.384 21.402-20.89 59.904-22.322 82.74 0 22.784 22.272 24.576 53.35-0.052 80.64l-191.846 200.090 191.846 200.090c24.626 27.34 22.836 58.418 0.052 80.69-22.886 22.272-61.39 20.89-82.74 0z" />
<glyph unicode="&#x25;" d="M438.426 741.582c21.402-20.89 230.502-240.436 230.502-240.436 11.47-11.162 17.152-25.754 17.152-40.346s-5.682-29.184-17.152-40.346c0 0-209.1-219.546-230.502-240.384-21.402-20.89-59.854-22.322-82.738 0-22.834 22.272-24.628 53.35 0 80.64l191.898 200.090-191.846 200.090c-24.628 27.34-22.834 58.418 0 80.69s61.338 20.89 82.688 0z" />
<glyph unicode="&#x26;" d="M557.692-64h-541.39l-16.3 54.976h573.992l-16.302-54.976zM516.682 941.684c0 10.1-8.182 18.316-18.314 18.316h-422.742c-10.132 0-18.314-8.216-18.314-18.316v0c0-10.132 8.216-18.314 18.314-18.314h422.742c10.132-0.032 18.314 8.182 18.314 18.314v0zM508.788 895.466h-443.616l-65.174-109.952v-773.76h573.992v773.76l-65.204 109.952zM567.728 299.484c-153.134-56.67-178.546 21.254-329.314 67.218-150.738 46.028-232.18-120.308-232.18-120.308v392.826c0 0 57.342 194.528 238.222 53.092 247.298-193.312 323.274-70.798 323.274-70.798s0-198.14 0-322.028zM137.442 543.616c0-1.054-0.192-2.3-0.704-3.772-0.51-1.438-1.248-2.846-2.366-4.154-1.022-1.278-2.3-2.462-3.836-3.356-1.502-0.96-3.228-1.438-5.146-1.438-5.626 0-9.716 0.894-12.402 2.654-2.654 1.79-4.636 4.668-5.944 8.662-1.088 3.292-2.142 6.808-3.292 10.58-1.118 3.74-2.43 7.224-3.93 10.356s-3.324 5.784-5.53 7.862c-2.236 2.11-4.954 3.164-8.31 3.164h-4.090c-2.46 0-3.9-0.446-4.252-1.406v-28.096c0-5.656 4.186-8.502 12.656-8.502v-3.868h-38.836v3.868c8.054 0 12.114 2.846 12.114 8.502v61.306c0 5.498-4.378 8.278-13.074 8.278v3.994h17.196c3.036 0 5.594 0.064 7.704 0.064 2.078 0.096 4.124 0.128 6.074 0.224 1.982 0.064 4.124 0.16 6.328 0.16 2.236 0.064 4.986 0.096 8.216 0.096 3.962 0 7.672-0.576 11.156-1.63s6.488-2.59 9.014-4.476c2.526-1.918 4.508-4.154 6.010-6.712 1.47-2.62 2.174-5.434 2.174-8.502 0-2.974-0.576-5.69-1.822-7.99-1.15-2.366-2.844-4.38-4.986-6.074-2.142-1.758-4.73-3.228-7.638-4.41-2.942-1.216-6.168-2.174-9.782-2.878v-0.384c4.442-1.982 8.054-4.506 10.962-7.446 2.876-3.006 4.794-5.882 5.816-8.662 0.606-1.726 1.216-3.804 1.95-6.202s1.598-4.7 2.558-6.872c0.99-2.174 2.046-4.026 3.388-5.53 1.278-1.502 2.814-2.236 4.668-2.236 2.206 0 3.772 1.95 4.826 5.88l3.132-1.056zM88.058 579.224c2.748 0 5.434 0.192 7.99 0.544 2.558 0.384 4.89 1.118 6.904 2.332s3.612 2.908 4.858 5.178c1.246 2.238 1.854 5.306 1.854 9.174 0 3.324-0.606 6.010-1.854 8.214s-2.844 3.836-4.794 5.114c-1.982 1.214-4.186 2.11-6.52 2.62-2.43 0.544-4.73 0.766-7.032 0.766h-6.616c-3.484 0-5.21-2.396-5.21-7.224v-24.77c0.352-1.31 1.438-1.982 3.292-1.982h7.128zM269.736 530.322v3.324c1.12 0.16 2.27 0.32 3.516 0.48 1.214 0.128 2.3 0.32 3.324 0.576 0.96 0.224 1.822 0.51 2.462 0.83 0.67 0.32 1.024 0.736 1.024 1.152-0.096 0.32-0.16 0.702-0.192 1.31-0.032 0.576-0.256 1.248-0.67 2.078l-5.37 13.744c-0.862 1.982-3.292 2.94-7.256 2.94h-17.644c-3.004 0-4.826-0.926-5.466-2.908l-4.058-11.604c-0.32-0.64-0.48-1.63-0.48-2.876 0-3.42 3.484-5.114 10.452-5.114v-3.932h-26.752v3.932c2.3 0.128 4.314 0.864 5.944 2.204 1.598 1.342 2.974 3.292 4.092 5.85l28.574 64.022 3.548-1.374 28.19-66.58c1.086-1.566 1.982-2.524 2.62-2.908 0.16-0.16 0.798-0.384 1.982-0.64 1.086-0.256 2.75-0.67 4.762-1.182v-3.324h-32.602zM259.412 590.476l-10.484-23.524c-0.862-1.79-1.31-3.068-1.31-3.804 0-1.12 1.47-1.694 4.412-1.694h14.992c2.396 0 3.58 0.448 3.58 1.342 0 0.384-0.448 1.63-1.31 3.708l-9.878 23.972zM306.174 532.11v3.324c2.366 0 4.25 0.128 5.752 0.384 1.502 0.192 2.62 0.672 3.356 1.374 0.862 0.702 1.438 1.79 1.694 3.164 0.32 1.406 0.448 3.196 0.448 5.434v46.506c0 2.654-0.256 4.604-0.64 5.914s-0.99 2.238-1.982 2.78c-0.928 0.608-2.11 0.928-3.676 1.086-1.438 0.16-3.26 0.448-5.37 0.894v3.452c1.566-0.224 3.26-0.352 4.986-0.416 1.758-0.032 3.484-0.032 5.37-0.032 2.428 0 4.634 0.032 6.744 0.128 2.046 0.064 4.122 0.16 6.106 0.256 2.046 0.128 4.188 0.192 6.36 0.288 2.11 0.064 4.508 0.128 7.064 0.128 6.744 0 12.656-0.832 17.964-2.59 5.242-1.726 9.62-4.188 13.106-7.382 3.612-3.196 6.36-7.16 8.246-11.794 1.886-4.666 2.812-9.972 2.812-15.758 0-5.688-0.928-10.804-2.812-15.342-1.758-4.572-4.666-8.47-8.63-11.666-3.93-3.196-8.854-5.69-14.99-7.448-6.168-1.758-13.488-2.62-22.024-2.62h-29.884zM343.314 536.522c9.366 0 16.366 2.622 20.776 7.864 4.634 5.274 6.808 13.552 6.808 24.836 0 11.218-2.492 19.464-7.608 24.802-5.050 5.338-12.434 8.024-22.024 8.024h-4.73c-1.438 0-2.558-0.064-3.484-0.16-0.928-0.128-1.758-0.448-2.3-0.928-0.574-0.478-0.99-1.15-1.182-2.014-0.256-0.894-0.32-2.142-0.32-3.708v-50.214c0-2.014 0.128-3.612 0.512-4.762 0.32-1.152 0.928-1.982 1.822-2.558 0.736-0.576 1.886-0.894 3.26-1.024 1.31-0.096 3.004-0.128 4.986-0.128h3.484zM244.39 446.706c-1.854 6.904-4.986 12.338-9.396 16.462s-9.878 6.138-16.366 6.138c-5.338 0-9.588-1.278-12.784-3.804s-4.794-5.722-4.794-9.588c0-3.1 1.118-5.722 3.42-7.958s5.754-4.25 10.356-6.010c5.754-2.206 10.932-4.058 15.566-5.498 4.73-1.47 8.758-3.196 12.082-5.146s5.914-4.41 7.736-7.35c1.822-2.942 2.748-6.904 2.748-11.986 0-3.164-0.574-6.202-1.662-9.302-1.022-3.036-2.718-5.754-4.954-8.216-2.206-2.332-5.146-4.316-8.79-5.85-3.612-1.47-7.96-2.206-13.008-2.206-3.292 0-6.104 0.224-8.534 0.672-2.396 0.448-4.412 0.864-6.040 1.47-1.63 0.672-2.942 1.216-3.868 1.822-0.926 0.64-1.63 1.024-1.982 1.278-1.822-1.216-3.548-2.206-5.338-3.26-1.79-0.832-3.612-1.534-5.37-1.982-1.022 6.456-1.822 12.178-2.3 17.068-0.544 4.986-0.8 9.27-0.8 13.010h4.668c0-3.74 0.8-7.128 2.492-10.164 1.694-3.132 3.836-5.722 6.52-7.958 2.622-2.174 5.594-3.9 8.886-5.178 3.228-1.15 6.426-1.79 9.526-1.79 1.982 0 4.188 0.288 6.52 0.832 2.43 0.64 4.668 1.566 6.808 2.846 2.078 1.278 3.836 2.846 5.306 4.762 1.47 1.982 2.174 4.316 2.174 7 0 3.388-0.992 6.328-3.036 8.886-2.014 2.462-5.146 4.506-9.652 5.914-5.146 1.662-10.068 3.228-14.83 4.668-4.73 1.438-8.95 3.164-12.498 5.146-3.644 1.95-6.552 4.476-8.694 7.448s-3.26 6.936-3.26 11.826c0 3.548 0.736 6.744 2.11 9.62 1.406 2.878 3.324 5.338 5.658 7.416 2.396 2.046 5.242 3.644 8.438 4.794 3.196 1.12 6.52 1.726 10.004 1.726 4.026 0 7.448-0.67 10.292-1.982 2.908-1.278 5.53-2.462 7.992-3.452 2.878 2.11 5.978 3.548 9.14 4.442 1.31-3.868 2.236-8.024 2.812-12.37 0.574-4.38 0.83-9.078 0.83-14.16h-4.122zM365.018 387.606v3.356c2.428 0 4.442 0.064 6.010 0.352 1.502 0.192 2.686 0.672 3.484 1.374 0.928 0.672 1.502 1.79 1.758 3.164 0.32 1.374 0.448 3.228 0.448 5.434v46.506c0 2.62-0.192 4.572-0.64 5.88s-1.12 2.27-2.11 2.812c-0.99 0.574-2.174 0.894-3.804 1.056-1.502 0.16-3.42 0.448-5.626 0.894v3.452c1.63-0.224 3.42-0.352 5.242-0.384 1.758-0.032 3.612-0.064 5.562-0.064 2.492 0 4.794 0.032 7.064 0.128 2.174 0.064 4.314 0.16 6.488 0.256 2.11 0.16 4.314 0.224 6.552 0.288 2.238 0.096 4.73 0.16 7.416 0.16 7.064 0 13.298-0.862 18.794-2.62 5.498-1.726 10.036-4.188 13.808-7.382 3.74-3.196 6.616-7.128 8.566-11.794s2.878-9.942 2.878-15.726c0-5.754-0.928-10.804-2.878-15.406-1.886-4.538-4.858-8.374-8.982-11.602s-9.366-5.688-15.726-7.448c-6.426-1.726-14.096-2.62-23.046-2.62h-31.26zM403.788 391.986c9.878 0 17.1 2.59 21.862 7.894 4.73 5.274 7.064 13.52 7.064 24.802 0 11.22-2.62 19.466-7.99 24.772-5.242 5.37-12.914 8.024-22.98 8.024h-4.986c-1.502 0-2.75-0.064-3.74-0.16-0.928-0.128-1.758-0.416-2.3-0.894-0.64-0.478-1.056-1.152-1.31-2.046s-0.32-2.142-0.32-3.708v-50.15c0-2.046 0.128-3.644 0.574-4.794 0.32-1.182 0.99-1.982 1.822-2.62 0.862-0.48 1.982-0.798 3.42-0.958 1.438-0.064 3.196-0.128 5.242-0.128h3.644zM497.312 387.606v3.356c1.182 0.128 2.428 0.288 3.676 0.48 1.31 0.16 2.428 0.288 3.484 0.576 0.99 0.192 1.95 0.48 2.62 0.798 0.67 0.288 0.99 0.672 0.99 1.182-0.064 0.352-0.064 0.672-0.128 1.278-0.064 0.576-0.32 1.246-0.67 2.046l-5.626 13.808c-0.862 1.982-3.42 2.942-7.608 2.942h-18.476c-3.196 0-5.114-0.958-5.818-2.876l-4.188-11.634c-0.32-0.64-0.512-1.662-0.512-2.908 0-3.42 3.676-5.146 10.996-5.146v-3.9h-28.032v3.9c2.366 0.16 4.442 0.894 6.168 2.27 1.694 1.31 3.132 3.324 4.314 5.85l29.854 63.958 3.676-1.31 29.534-66.642c1.182-1.566 2.046-2.524 2.75-2.876 0.192-0.128 0.864-0.352 2.046-0.64s2.876-0.64 5.050-1.15v-3.356h-34.106zM486.51 447.792l-10.93-23.524c-0.928-1.79-1.374-3.068-1.374-3.804 0-1.12 1.502-1.694 4.572-1.694h15.726c2.492 0 3.676 0.48 3.676 1.342 0 0.384-0.448 1.598-1.374 3.676l-10.292 24.004zM223.23 548.892c-2.366-5.434-5.658-10.292-9.782-14.48-4.188-4.25-8.982-7.48-14.544-9.812-5.53-2.302-11.412-3.548-17.74-3.644-6.234 0.096-12.178 1.342-17.708 3.644s-10.324 5.562-14.51 9.812c-4.156 4.188-7.414 9.046-9.812 14.48-2.332 5.466-3.548 11.41-3.548 17.802 0 6.17 1.216 12.050 3.548 17.676 2.366 5.562 5.658 10.388 9.812 14.478 4.188 4.092 8.982 7.352 14.51 9.782 5.53 2.462 11.444 3.612 17.708 3.516 6.296 0.096 12.21-1.054 17.74-3.516 5.562-2.398 10.356-5.688 14.544-9.782 4.122-4.090 7.384-8.918 9.782-14.478 2.332-5.626 3.548-11.476 3.548-17.676 0.032-6.392-1.182-12.338-3.548-17.802zM143.93 567.686c-0.224 0.416-0.384 0.702-0.67 0.894-0.224 0.16-0.51 0.384-0.862 0.64-0.352 0.224-0.67 0.288-1.056 0.16-0.352 0.128-0.704 0.064-1.056-0.16-0.352-0.256-0.67-0.48-0.862-0.64-0.256-0.192-0.48-0.51-0.67-0.894-0.16-0.416-0.256-0.734-0.256-0.99 0-0.478 0.096-0.83 0.256-1.15 0.192-0.32 0.416-0.574 0.67-0.862 0.224-0.32 0.544-0.512 0.862-0.64 0.352-0.096 0.704-0.256 1.056-0.352 0.384 0.096 0.704 0.256 1.056 0.352 0.384 0.128 0.67 0.32 0.862 0.64 0.288 0.32 0.448 0.574 0.67 0.862 0.16 0.32 0.288 0.67 0.288 1.15 0 0.224-0.128 0.576-0.288 0.99zM212.746 579.96c-1.854 4.218-4.252 7.83-7.32 10.866-3.1 3.036-6.744 5.434-10.9 7.32-4.156 1.822-8.566 2.686-13.36 2.558-4.73 0.128-9.14-0.734-13.296-2.558-4.188-1.886-7.83-4.282-10.9-7.32-3.1-3.036-5.498-6.648-7.32-10.866-1.79-4.25-2.652-8.662-2.652-13.298 0-4.858 0.862-9.334 2.652-13.424 1.822-4.124 4.218-7.702 7.32-10.868 3.068-3.164 6.712-5.562 10.9-7.288 4.156-1.758 8.566-2.654 13.296-2.782 4.794 0.128 9.206 1.024 13.36 2.782 4.156 1.726 7.8 4.122 10.9 7.288 3.068 3.164 5.466 6.744 7.32 10.868 1.758 4.090 2.622 8.566 2.622 13.424 0 4.666-0.862 9.078-2.622 13.298zM176.244 563.754c-0.224 0.448-0.416 0.894-0.51 1.438-0.16 0.544-0.192 0.99-0.128 1.406 0.096 0.448 0.128 0.928 0.256 1.534l-4.762 4.442-10.004-26.018 26.146 9.812-4.634 4.954c-0.48-0.256-0.926-0.352-1.438-0.352-0.48 0-0.896 0.032-1.406 0.096s-0.896 0.224-1.406 0.512c-0.51 0.352-0.926 0.608-1.216 0.832-0.416 0.48-0.67 0.96-0.896 1.342zM175.158 576.666l26.21 10.132-10.004-26.338-4.794 4.794c0.128 0.384 0.192 0.798 0.256 1.31 0.064 0.574 0.032 1.024-0.096 1.438-0.096 0.448-0.288 0.894-0.51 1.438s-0.51 0.928-0.926 1.15c-0.32 0.48-0.704 0.798-1.216 0.96-0.51 0.224-0.926 0.384-1.438 0.576-0.48 0.16-0.926 0.192-1.438 0.096-0.48-0.128-0.896-0.192-1.406-0.192l-4.634 4.634zM178.64 605.402c0.192-0.416 0.384-0.702 0.64-0.832 0.256-0.224 0.544-0.446 0.862-0.67 0.384-0.256 0.704-0.32 1.056-0.192 0.384-0.128 0.704-0.064 1.118 0.192 0.32 0.224 0.606 0.448 0.83 0.67 0.256 0.128 0.448 0.448 0.64 0.832s0.288 0.734 0.288 0.958c0 0.512-0.096 0.862-0.288 1.15-0.192 0.32-0.384 0.608-0.64 0.928-0.256 0.288-0.544 0.478-0.83 0.606-0.416 0.128-0.736 0.256-1.118 0.384-0.352-0.128-0.67-0.256-1.056-0.384-0.352-0.128-0.64-0.32-0.862-0.606-0.256-0.352-0.448-0.64-0.64-0.928s-0.256-0.67-0.256-1.15c0-0.192 0.064-0.544 0.256-0.958zM183.788 527.796c-0.192 0.32-0.384 0.606-0.64 0.894s-0.544 0.51-0.83 0.638c-0.416 0.096-0.736 0.256-1.118 0.352-0.352-0.096-0.67-0.256-1.056-0.352-0.352-0.128-0.64-0.32-0.862-0.638s-0.448-0.608-0.64-0.894c-0.192-0.288-0.256-0.672-0.256-1.152 0-0.256 0.064-0.576 0.256-0.96s0.384-0.702 0.64-0.862c0.256-0.192 0.544-0.416 0.862-0.67 0.384-0.224 0.704-0.256 1.056-0.16 0.384-0.096 0.704-0.064 1.118 0.16 0.32 0.256 0.606 0.478 0.83 0.67 0.256 0.16 0.448 0.478 0.64 0.862s0.288 0.702 0.288 0.96c0 0.448-0.096 0.864-0.288 1.152zM223.71 567.686c-0.192 0.32-0.416 0.608-0.67 0.894-0.224 0.288-0.544 0.512-0.862 0.64-0.352 0.096-0.704 0.224-1.056 0.352-0.416-0.128-0.704-0.256-1.086-0.352-0.352-0.128-0.64-0.352-0.862-0.64-0.256-0.32-0.448-0.606-0.67-0.894-0.128-0.288-0.256-0.67-0.256-1.15 0-0.224 0.128-0.574 0.256-0.99 0.224-0.384 0.416-0.67 0.67-0.862s0.544-0.384 0.862-0.64c0.384-0.256 0.67-0.288 1.086-0.192 0.352-0.096 0.704-0.064 1.056 0.192s0.67 0.448 0.862 0.64c0.256 0.192 0.48 0.51 0.67 0.862 0.16 0.448 0.256 0.766 0.256 0.99 0 0.448-0.096 0.862-0.256 1.15zM353.544 422.636c0-6.136-1.12-12.018-3.484-17.612-2.366-5.562-5.69-10.42-9.812-14.544-4.188-4.058-8.982-7.32-14.544-9.78-5.498-2.398-11.346-3.548-17.738-3.452-6.234-0.096-12.114 1.054-17.644 3.452-5.594 2.428-10.356 5.722-14.544 9.78-4.122 4.124-7.382 8.982-9.782 14.544-2.366 5.594-3.58 11.442-3.58 17.612 0 6.424 1.214 12.37 3.58 17.836 2.366 5.434 5.656 10.26 9.782 14.478 4.188 4.188 8.95 7.512 14.544 9.846 5.53 2.238 11.412 3.484 17.644 3.612 6.36-0.128 12.242-1.374 17.738-3.612 5.562-2.3 10.356-5.656 14.544-9.846 4.122-4.218 7.416-9.046 9.812-14.478 2.366-5.498 3.484-11.41 3.484-17.836zM270.984 422.636c0 0.48-0.096 0.894-0.288 1.15-0.16 0.32-0.384 0.606-0.608 0.894-0.256 0.32-0.574 0.544-0.894 0.64-0.352 0.128-0.67 0.256-1.056 0.384-0.384-0.128-0.702-0.256-1.056-0.384-0.352-0.096-0.67-0.32-0.894-0.64s-0.416-0.606-0.64-0.894c-0.16-0.256-0.256-0.702-0.256-1.15 0-0.256 0.096-0.576 0.256-0.958 0.224-0.416 0.416-0.702 0.64-0.864 0.256-0.192 0.574-0.384 0.894-0.64s0.67-0.288 1.056-0.192c0.384-0.096 0.702-0.064 1.056 0.192s0.67 0.448 0.894 0.64c0.224 0.16 0.448 0.48 0.608 0.864 0.192 0.384 0.288 0.702 0.288 0.958zM342.196 422.636c0 4.858-0.928 9.366-2.62 13.456-1.822 4.092-4.25 7.672-7.32 10.866-3.132 3.132-6.68 5.562-10.93 7.288-4.122 1.758-8.566 2.654-13.36 2.782-4.73-0.128-9.204-1.024-13.33-2.782-4.154-1.726-7.766-4.154-10.868-7.288-3.068-3.196-5.498-6.776-7.32-10.866-1.726-4.092-2.588-8.598-2.588-13.456 0-4.602 0.862-9.014 2.588-13.264 1.854-4.188 4.284-7.798 7.32-10.836 3.1-3.068 6.712-5.466 10.868-7.32 4.122-1.886 8.566-2.684 13.33-2.59 4.794-0.096 9.238 0.702 13.36 2.59 4.25 1.854 7.798 4.25 10.93 7.32 3.068 3.036 5.498 6.648 7.32 10.836 1.662 4.22 2.62 8.662 2.62 13.264zM303.904 426.92c0.32 0.224 0.798 0.51 1.248 0.768 0.512 0.32 0.928 0.48 1.374 0.51 0.512 0.128 0.99 0.16 1.438 0.16 0.574 0 0.99-0.16 1.438-0.384l4.666 4.986-26.242 9.75 9.972-25.954 4.89 4.476c-0.16 0.64-0.224 1.086-0.288 1.534-0.064 0.416-0.064 0.864 0.064 1.438 0.128 0.51 0.32 0.958 0.478 1.406 0.288 0.384 0.608 0.864 0.96 1.31zM306.526 417.298c0.512 0 0.99-0.096 1.438-0.192 0.574-0.128 0.99-0.096 1.438 0.064 0.512 0.224 0.99 0.352 1.502 0.576 0.512 0.16 0.862 0.51 1.182 0.958 0.384 0.224 0.67 0.672 0.862 1.15 0.32 0.544 0.448 0.99 0.512 1.438 0.192 0.384 0.256 0.864 0.192 1.438-0.128 0.544-0.192 0.958-0.32 1.31l4.858 4.794 9.94-26.306-26.146 10.1 4.538 4.668zM305.152 382.908c0-0.448 0.128-0.832 0.256-1.12 0.192-0.352 0.384-0.64 0.64-0.928s0.512-0.51 0.928-0.606c0.32-0.128 0.67-0.256 0.99-0.352 0.448 0.096 0.736 0.224 1.12 0.352 0.32 0.096 0.64 0.32 0.798 0.606 0.32 0.32 0.512 0.606 0.67 0.928 0.192 0.288 0.32 0.672 0.32 1.12 0 0.256-0.128 0.606-0.32 0.99-0.192 0.448-0.384 0.672-0.67 0.864-0.16 0.224-0.478 0.416-0.798 0.672-0.384 0.192-0.67 0.288-1.12 0.16-0.32 0.128-0.67 0.032-0.99-0.16-0.448-0.288-0.67-0.48-0.928-0.672s-0.448-0.448-0.64-0.864c-0.128-0.384-0.256-0.736-0.256-0.99zM310.904 462.688c0 0.288-0.128 0.608-0.32 0.96-0.192 0.416-0.384 0.702-0.67 0.894-0.192 0.224-0.512 0.416-0.832 0.64-0.384 0.256-0.67 0.32-1.12 0.192-0.32 0.128-0.67 0.064-0.99-0.192-0.448-0.224-0.67-0.416-0.928-0.608s-0.448-0.512-0.64-0.894c-0.128-0.384-0.256-0.67-0.256-0.96 0-0.448 0.128-0.832 0.256-1.182 0.192-0.288 0.384-0.574 0.64-0.862s0.512-0.544 0.928-0.608c0.32-0.128 0.67-0.288 0.99-0.416 0.448 0.128 0.736 0.288 1.12 0.416 0.32 0.064 0.64 0.32 0.798 0.608 0.32 0.32 0.512 0.608 0.67 0.862 0.224 0.32 0.352 0.736 0.352 1.152zM350.73 422.828c0 0.224-0.128 0.544-0.256 0.928-0.192 0.48-0.448 0.736-0.64 0.894-0.256 0.192-0.512 0.384-0.862 0.64-0.448 0.256-0.736 0.32-1.12 0.192-0.32 0.128-0.736 0.064-0.99-0.192-0.384-0.256-0.67-0.448-0.862-0.64-0.32-0.16-0.512-0.448-0.67-0.894-0.192-0.416-0.256-0.702-0.256-0.928 0-0.51 0.064-0.864 0.256-1.182s0.384-0.576 0.67-0.864c0.192-0.32 0.512-0.51 0.862-0.64 0.256-0.096 0.67-0.256 0.99-0.352 0.384 0.096 0.67 0.256 1.12 0.352 0.384 0.128 0.64 0.32 0.862 0.64 0.192 0.32 0.448 0.576 0.64 0.864 0.128 0.32 0.256 0.702 0.256 1.182zM72.142 448.016l-18.73 10.068c-11.284-8.662-42.32-29.886-42.576-30.108l21.096-7.768c0.064 0.064 30.396 20.298 40.21 27.808zM429.072 496.088c-8.566-1.056-17.996-0.99-28.928 0.16l-5.274-14.512c13.712-1.438 19.434-6.264 30.812-4.922 11.538 1.374 28.512 8.95 38.738 13.234l-12.338 12.050c-7.32-3.068-14.862-5.018-23.012-6.010zM245.828 502.354c-6.008-0.798-11.858-1.726-17.516-2.716-8.246-1.438-16.3-3.164-24.1-5.082l5.114-13.84c6.968 1.694 14.224 3.228 21.64 4.572 5.146 0.894 10.484 1.726 15.95 2.492 7.192 0.96 14.416 1.694 21.512 2.238l1.152 14.894c-7.862-0.64-15.886-1.502-23.748-2.558zM514.062 514.020c-6.936-3.9-15.342-7.128-25.762-9.878l4.188-14.702c13.040 3.484 21.096 1.182 30.334 6.33 9.428 5.21 19.818 17.802 26.306 25.124l-18.316 6.456c-4.602-5.306-10.068-9.62-16.75-13.328zM156.908 477.902l7.288 15.63c-11.092 0.384-29.598 1.47-40.882-1.342-11.124-2.716-14.766-9.3-27.106-15.47l10.068-11.698c9.814 4.922 18.634 8.31 27.008 10.356 7.926 1.95 15.662 2.782 23.622 2.524zM359.84 488.546l10.964 13.298c-10.644 3.164-28.286 8.854-39.89 9.014-11.442 0.16-16.654-5.274-30.142-8.152l6.776-13.872c10.772 2.3 20.168 3.324 28.798 3.228 8.214-0.096 15.854-1.248 23.492-3.516z" horiz-adv-x="574" />
<glyph unicode="&#x28;" d="M384 320l128 64 448 448-64 64-448-448-64-128zM289.3 92.902c-31.632 66.728-65.666 100.762-132.396 132.394l99.096 272.792 128 77.912 384 384h-192l-384-384-192-640 640 192 384 384v192l-384-384-77.912-128z" />
<glyph unicode="&#x29;" d="M864 960c88.364 0 160-71.634 160-160 0-36.020-11.91-69.258-32-96l-64-64-224 224 64 64c26.742 20.090 59.978 32 96 32zM64 224l-64-288 288 64 592 592-224 224-592-592zM715.578 596.422l-448-448-55.156 55.156 448 448 55.156-55.156z" />
<glyph unicode="&#x2a;" d="M512-64q-104 0-199 40.5t-163.5 109-109 163.5-40.5 199 40.5 199 109 163.5 163.5 109 199 40.5 199-40.5 163.5-109 109-163.5 40.5-199-40.5-199-109-163.5-163.5-109-199-40.5zM544 832q-40 0-68-28t-28-67.5 28-68 68-28.5 68 28.5 28 68-28 67.5-68 28zM673 302q-60-63-88-81.5t-55-18.5q-15 0-25.5 13.5t-10.5 34.5q0 43 82 326l-155 29q-101-249-101-390 0-65 31-108t76-43q81 0 246 162v76z" />
<glyph unicode="&#x31;" d="M320 576h128v-128h-128zM512 576h128v-128h-128zM704 576h128v-128h-128zM128 192h128v-128h-128zM320 192h128v-128h-128zM512 192h128v-128h-128zM320 384h128v-128h-128zM512 384h128v-128h-128zM704 384h128v-128h-128zM128 384h128v-128h-128zM832 960v-64h-128v64h-448v-64h-128v64h-128v-1024h960v1024h-128zM896 0h-832v704h832v-704z" />
<glyph unicode="&#x35;" d="M397.434 42.304l-397.868 391.6 197.378 194.27 200.49-197.332 429.62 422.852 197.378-194.27-626.998-617.12zM107.912 433.904l289.524-284.962 518.656 510.482-89.036 87.632-429.62-422.852-200.49 197.334-89.034-87.634z" />
<glyph unicode="&#x36;" d="M0 960v-1024h1024v1024h-1024zM960 0h-896v896h896v-896zM768 736l-320-320-192 192-128-128 320-320 448 448-128 128z" />
<glyph unicode="&#x40;" d="M853.344 960h-682.66c-93.872 0-170.684-76.814-170.684-170.688v-682.626c0-93.938 76.812-170.686 170.684-170.686l682.66 0.002c93.876 0 170.656 76.746 170.656 170.688v682.622c0 93.874-76.782 170.688-170.656 170.688zM870.592 448h-166.592v-448h-192v448h-92.526v146.564h92.526v95.186c0 129.342 55.792 206.25 207.87 206.25h175.244v-158.57h-143.13c-42.482 0.070-47.752-22.152-47.752-63.512l-0.232-79.354h192l-25.408-146.564z" />
<glyph unicode="&#x41;" d="M156 760c-40 0-70 30-70 70s30 72 70 72h706c40 0 72-32 72-72s-32-70-72-70h-706zM862 586c40 0 72-32 72-72s-32-70-72-70h-706c-40 0-70 30-70 70s30 72 70 72h706zM862 268c40 0 72-30 72-70s-32-72-72-72h-706c-40 0-70 32-70 72s30 70 70 70h706z" />
<glyph unicode="&#x42;" d="M255.574 438.92c11.488 52.156 73.356 59.396 133.718 27.672 277.712-145.726 684.050-200.402 921.71-163.612 67.426 10.428 121.808 0.494 125.464-39.014 3.656-39.532-36.146-109.232-101.398-128.974-249.298-75.26-750.836 5.706-997.268 138.066-60.138 32.244-93.716 113.678-82.226 165.86v0zM1518.94-0.404c174.83 56.308 163.736 187.258 32.712 276.23-56.406 38.322-111.086 56.21-111.578 58.928l-0.866 4.892c0 0-62.116 389.76-195.83 504.626-157.558 132.16-359.172 128.306-506.008 99.004-66.932-13.342-63.646-30.292 3.582-41.78 163.12-27.87 327.128-105.574 422.2-137.718 64.61-21.866 140.338-60.31 72.492-53.27-120.45 12.476-503.858 207.544-730.994 188.122-110.17-10.106-137.62-104.636-137.62-104.636l-82.992-235.016c0 0-4.868-13.712-10.944-30.614-5.978-16.924-66.636-35.454-131.394-56.852-68.34-22.534-140.19-64.166-141.698-141.622 9.414-172.952 835.952-541.636 1518.94-330.288z" horiz-adv-x="1650" />
<glyph unicode="&#x43;" d="M788.442 702.7c-54.98 179.554-132.528-43.048-297.038-93.264-164.39-50.216-353.24 90.702-298.26-88.616 54.942-179.554 282.664-448 447.056-397.666 164.352 50.61 203.028 400.148 148.244 579.544zM435.476 400.462c-40.96-35.092-118.468-3.9-118.468-3.9-16.424 18.826 113.978 145.29 149.7 129.812 0 0 9.69-90.822-31.232-125.914zM655.674 285.106c-19.692 2.718-37.022-0.512-55.296-7.482-19.418-7.76-36.668-17.172-51.12-30.798-14.612-13.588-26.742-32.688-35.21-58.604-14.966 23.472-14.454 56.004-0.826 83.496 13.942 27.648 39.898 47.38 66.6 57.778 27.806 11.698 63.448 11.776 90.782-3.072 27.058-14.534 45.37-39.148 50.096-66.442-23.552 13.51-45.214 22.646-65.024 25.126zM653.706 475.57c-53.76 4.176-86.448 81.054-86.448 81.054 1.654 24.892 183.296 22.174 197.632-14.020-0.038-0.038-57.424-71.13-111.182-67.034z" />
<glyph unicode="&#x44;" d="M511.99 419.818c15.558 0 28.172 12.614 28.172 28.172 0 15.54-12.596 28.154-28.172 28.154-15.54 0-28.154-12.612-28.154-28.154 0-15.558 12.612-28.172 28.154-28.172zM131.824 625.028c13.68 28.822 38.598 69.644 83.052 114.116 44.472 44.452 85.31 69.356 114.096 83.034 22.57 10.68 43.296 11.006 44.382 5.44l2.006-10.028c0 0 0.94-4.5 2.060-10.028 1.138-5.53-17.638-15.378-39.754-26.89-24.522-12.722-57.736-34.388-93.84-70.494-36.34-36.322-57.97-69.336-70.618-93.732-11.492-22.136-25.696-40.044-36.792-37.802-11.076 2.224-15.27 23.834-4.59 46.388v0zM396.304 703.308l2.006-10.028c0 0 0.94-4.5 2.096-10.028 1.156-5.51-16.064-15.486-35.202-28.406-9.612-6.504-20.546-15.198-32.058-26.726-11.528-11.548-20.222-22.444-26.726-32.074-12.938-19.138-27.394-35.454-38.454-33.178-11.060 2.26-15.144 24.034-2.348 45.484 8.44 14.13 20.746 30.918 38.58 48.736s34.606 30.124 48.736 38.58c21.432 12.776 42.25 13.21 43.368 7.644v0zM511.99 601.608c84.842 0 153.598-68.776 153.598-153.598 0-84.842-68.758-153.598-153.598-153.598-84.822 0-153.598 68.758-153.598 153.598 0 84.806 68.776 153.598 153.598 153.598zM723.072 296.812c12.956 19.046 27.414 35.436 38.508 33.214 11.076-2.24 15.144-23.962 2.366-45.376-8.456-14.168-20.746-30.918-38.58-48.772-17.836-17.818-34.606-30.124-48.772-38.544-21.414-12.794-43.152-8.728-45.376 2.366s14.112 25.606 33.178 38.49c9.596 6.504 20.51 15.178 31.986 26.654 11.548 11.548 20.202 22.408 26.69 31.966zM849.042 269.256c11.528 22.136 25.732 40.044 36.81 37.84 11.096-2.222 15.288-23.836 4.59-46.37-13.66-28.822-38.58-69.662-83.034-114.116-44.472-44.452-85.328-69.374-114.116-83.034-22.552-10.68-44.146-6.504-46.386 4.59-2.206 11.096 15.65 25.462 37.802 36.954 24.504 12.722 57.682 34.406 93.75 70.456 36.304 36.304 57.934 69.3 70.582 93.678v0zM511.99-64c282.768 0 512.010 229.224 512.010 512.010 0 282.75-229.242 511.99-512.010 511.99-282.75 0-511.99-229.242-511.99-511.99 0-282.786 229.242-512.010 511.99-512.010z" />
<glyph unicode="&#x46;" d="M847.696 38.064l-17.36 64.416c-2.688 10.016-11.504 23.312-19.664 29.68l-37.168 29.040c-8.176 6.368-14.8 19.952-14.8 30.336v557.088c0 10.352 3.040 26.608 6.8 36.272l33.36 86c3.728 9.68 2.528 25.264-6.48 30.368-9.52 5.424-25.504 10.304-51.936 9.584-27.616-0.784-45.104-6.432-55.712-12.016-9.184-4.832-13.056-13.408-11.312-16.016 0.992-1.456 2.048-3.136 2.896-4.848 2.336-4.688-154.928-17.984-240.208-138.48-75.584-106.784-81.728-137.968-117.536-117.008-8.96 5.248-21.36 17.152-31.12 20.688-11.008 3.984-27.392 4.608-47.68-10.256-8.384-6.128-9.76-19.536-4.384-28.4l344.592-568.512c5.36-8.88 18.128-16.064 28.496-16.064h225.328c10.368 0 16.592 8.128 13.888 18.128zM687.424 777.12l-66.272-611.888c-3.024 3.104-6.176 6.448-9.408 9.92l65.344 603.392c3.424-0.416 6.832-0.848 10.336-1.424zM534.912 744.224c3.648 2.4 7.408 4.752 11.248 7.008l-47.76-440.848c-3.056 3.888-6.144 7.776-9.216 11.696l45.728 422.144zM478.128 336.176c-3.056 3.936-6.144 7.872-9.2 11.808l40.864 377.28c3.696 3.12 7.52 6.192 11.488 9.2l-43.152-398.288zM559.536 758.432c3.6 1.808 7.264 3.52 11.040 5.136l-51.84-478.688c-3.072 3.824-6.144 7.664-9.232 11.568l50.032 461.984zM583.712 768.768c3.568 1.248 7.184 2.416 10.88 3.488l-55.504-512.496c-3.056 3.728-6.16 7.536-9.264 11.376l53.888 497.632zM607.536 775.6c3.52 0.768 7.088 1.424 10.72 2l-58.768-542.56c-3.056 3.648-6.16 7.392-9.28 11.168l57.328 529.392zM631.008 779.28c3.472 0.336 7.008 0.544 10.56 0.704l-61.616-569.12c-3.056 3.552-6.16 7.2-9.312 10.912l60.368 557.504zM654.192 780.144c3.44-0.048 6.912-0.208 10.432-0.416l-64.144-592.256c-3.040 3.408-6.16 6.896-9.344 10.512l63.056 582.16zM495.824 712.688l-37.952-350.448c-3.072 3.952-6.16 7.92-9.2 11.904l35.376 326.64c3.744 3.968 7.648 7.936 11.776 11.904zM437.632 388.48c-3.072 4.016-6.144 8-9.184 12l29.152 269.264c3.696 4.736 7.696 9.744 12.112 14.976l-32.080-296.24zM442.896 650.064l-25.472-235.12c-3.072 4.048-6.144 8.064-9.168 12.064l22.4 206.864c2.544 3.264 5.136 6.64 7.776 10.176 1.344 1.76 2.848 3.824 4.464 6.016zM404.304 603.696c3.904 3.792 7.84 7.984 11.84 12.544l-18.928-174.704c-3.088 4.112-6.144 8.144-9.168 12.16l16.256 150zM300.832 587.472c16.688-6.304 41.936-13.808 59.376-9.936 10.752 2.384 20.608 7.184 30.24 14.304l-13.376-123.488c-36.88 49.088-67.056 90.176-82.464 111.232-6.144 8.352-3.472 11.536 6.224 7.888zM664.816 131.024c-6.016 0-17.296 8.4-32.304 22.848l67.232 620.864c5.152-1.136 10.352-2.432 15.664-3.952l-7.808-564.112c0 0 2.064-75.648-42.784-75.648z" />
<glyph unicode="&#x47;" d="M544 0v192c17.688 0 32 14.312 32 32s-14.312 32-32 32h-64c-17.688 0-32-14.312-32-32s14.312-32 32-32v-192h-96l-64-64h384l-64 64h-96zM640 448h64c0-106.062-86-192-192-192-106.032 0-192 85.938-192 192h64c17.688 0 32 14.312 32 32s-14.312 32-32 32h-64v64h64c17.688 0 32 14.312 32 32s-14.312 32-32 32h-64v64h64c17.688 0 32 14.312 32 32s-14.312 32-32 32h-64c0 56.626 25 107.032 64 142.156v-46.156c0-17.688 14.312-32 32-32s32 14.312 32 32v84.25c20.126 7.124 41.438 11.75 64 11.75s43.876-4.626 64-11.75v-84.25c0-17.688 14.312-32 32-32s32 14.312 32 32v46.156c39-35.156 64-85.532 64-142.156h-64c-17.688 0-32-14.312-32-32s14.312-32 32-32h64v-64h-64c-17.688 0-32-14.312-32-32s14.312-32 32-32h64v-64h-64c-17.688 0-32-14.312-32-32s14.312-32 32-32z" />
<glyph unicode="&#x48;" d="M496.312 508.938l-52.188 52.188 294.126 113.126-113.126-294.126-52.188 52.188c5.376 21.188 0.876 44.376-15.688 60.938s-39.748 21.122-60.936 15.686zM466.75 402.75c-16.562 16.562-21.126 39.75-15.688 60.938l-52.188 52.188-113.126-294.126 294.126 113.126-52.188 52.188c-21.186-5.44-44.374-0.876-60.936 15.686zM1024 448c0-282.75-229.25-512-512-512s-512 229.25-512 512 229.25 512 512 512 512-229.25 512-512zM480 896c0-17.688 14.312-32 32-32s32 14.312 32 32-14.312 32-32 32-32-14.312-32-32zM96 448c0 17.688-14.312 32-32 32s-32-14.312-32-32 14.312-32 32-32 32 14.312 32 32zM544 0c0 17.688-14.312 32-32 32s-32-14.312-32-32 14.312-32 32-32 32 14.312 32 32zM896 448c0 211.75-172.25 384-384 384s-384-172.25-384-384 172.25-384 384-384 384 172.25 384 384zM992 448c0 17.688-14.312 32-32 32s-32-14.312-32-32 14.312-32 32-32 32 14.312 32 32z" />
<glyph unicode="&#x4b;" d="M100.064 515.776c-28.752 0-52.064-23.312-52.064-52.064v-100.672c0-28.752 23.312-52.080 52.064-52.080s52.080 23.312 52.080 52.080v12.72h72.048v-51.776c0-15.632 9.984-36.112 22.304-45.744l145.504-113.712v-192.144h256v194.608l145.344 111.456c12.4 9.52 22.464 29.904 22.464 45.536v51.776h72.048v-12.72c0-28.752 23.312-52.080 52.080-52.080 28.752 0 52.064 23.312 52.064 52.080v100.672c0 28.752-23.312 52.064-52.064 52.064s-52.080-23.312-52.080-52.064v-15.536h-72.048v231.584h72.048v-15.456c0-28.752 23.312-52.080 52.080-52.080 28.752 0 52.064 23.312 52.064 52.080v100.656c0 28.752-23.312 52.064-52.064 52.064s-52.080-23.312-52.080-52.064v-12.8h-72.048v119.408c0 15.632-11.616 23.232-25.936 16.96l-244.88-107.216c-14.32-6.272-37.536-6.24-51.84 0.064l-243.056 107.088c-14.304 6.304-25.904-1.264-25.904-16.896v-119.392h-72.048v12.8c0 28.752-23.312 52.064-52.080 52.064-28.752 0-52.064-23.312-52.064-52.080v-100.672c0-28.752 23.312-52.080 52.064-52.080s52.080 23.312 52.080 52.080v15.456h72.048v-231.584h-72.048v15.536c0 28.768-23.312 52.080-52.080 52.080z" />
<glyph unicode="&#x4d;" d="M512 790.064c-4.096 0-8.16-0.192-12.24-0.304-11.568-10.768-27.968-35.040-43.792-80.048 18.384 1.456 37.056 2.288 56.032 2.288s37.648-0.832 56.032-2.288c-15.824 45.008-32.224 69.264-43.792 80.048-4.080 0.112-8.144 0.304-12.24 0.304zM249.328 464.72c-1.616-18.832-2.528-37.968-2.528-57.376 0-26.832 1.664-53.136 4.72-78.768 35.264-6.992 76.112-12.912 122.56-16.992-1.536 26.272-2.368 53.312-2.368 80.992 0 30.704 0.992 60.688 2.864 89.648-47.648-4.176-89.344-10.304-125.248-17.504zM254.272 506.464c37.744 6.944 79.28 12.384 123.552 16.080 4.944 51.28 12.752 98.576 22.816 140.112-40.608-6.928-78.896-17.536-113.872-31.248-14.688-38.304-25.776-80.4-32.496-124.944zM772.48 328.56c3.040 25.632 4.72 51.936 4.72 78.768 0 19.424-0.912 38.56-2.528 57.376-35.904 7.2-77.6 13.328-125.232 17.488 1.872-28.96 2.864-58.928 2.864-89.648 0-27.68-0.832-54.72-2.368-80.992 46.432 4.096 87.28 10.032 122.544 17.008zM377.040 271.264c-42.592 3.568-82.592 8.784-119.152 15.36 8.608-46.24 21.984-89.456 39.152-128.128 31.536-11.616 65.568-20.768 101.472-27.024-9.584 41.712-16.912 88.896-21.472 139.792zM113.28 391.328c0-6.592 0.176-13.12 0.496-19.632 21.216-10.992 53.536-23.024 96.352-33.792-2.16 22.656-3.328 45.84-3.328 69.424 0 16.224 0.528 32.256 1.568 48.064-41.44-10.544-72.864-22.224-93.776-32.96-0.784-10.272-1.312-20.624-1.312-31.104zM414.928 485.2c-2.064-30.080-3.216-61.024-3.216-92.64 0-28.56 0.864-56.656 2.56-84 30.464-1.808 63.024-2.832 97.728-2.832s67.264 1.024 97.744 2.832c1.696 27.328 2.56 55.44 2.56 84 0 31.616-1.152 62.56-3.216 92.64-30.304 1.792-62.624 2.8-97.088 2.8s-66.784-1.008-97.072-2.8zM512 672c-23.328 0-46.208-1.232-68.544-3.52-11.328-42.368-19.792-90.832-25.104-143.104 30.256 1.712 61.568 2.624 93.648 2.624s63.392-0.912 93.664-2.608c-5.312 52.272-13.776 100.736-25.104 143.104-22.352 2.272-45.232 3.504-68.56 3.504zM606.608 268.416c-30.56-1.744-62.192-2.656-94.608-2.656s-64.048 0.912-94.608 2.656c4.896-51.952 12.928-100.272 23.712-142.88 23.088-2.448 46.736-3.776 70.896-3.776s47.808 1.328 70.896 3.776c10.784 42.592 18.816 90.928 23.712 142.88zM788.176 608.016c10.56-34.624 18.48-71.536 23.344-110.16 35.216-8.16 66.064-17.728 91.504-28.4-4.608 23.216-11.296 45.648-19.744 67.216-25.184 27.104-57.408 51.232-95.104 71.344zM742.016 716.928c9.936-17.584 19.024-36.304 27.2-56.032 22.832-9.968 44.288-21.2 64.144-33.584-25.424 34.56-56.304 64.816-91.344 89.616zM120.976 469.456c25.44 10.672 56.288 20.24 91.504 28.4 4.864 38.608 12.768 75.536 23.344 110.16-37.712-20.096-69.92-44.224-95.104-71.328-8.448-21.568-15.136-44.016-19.744-67.232zM412.24 704.864c9.872 31.6 21.216 58.512 33.696 79.648-29.008-4.848-56.96-12.816-83.488-23.552-19.872-22.592-37.872-49.392-53.424-79.616 32.512 10.384 67.104 18.32 103.216 23.52zM118.832 325.216c3.472-20.832 8.576-41.088 15.152-60.688 27.76-32.128 65.344-60.336 110.080-83.024-12.528 35.376-22.16 73.552-28.512 113.696-37.504 8.544-70.144 18.672-96.72 30.016zM890.016 264.528c6.576 19.6 11.68 39.872 15.152 60.704-26.576-11.344-59.216-21.488-96.736-30.032-6.352-40.16-15.984-78.32-28.512-113.696 44.752 22.688 82.32 50.88 110.096 83.024zM700.96 108.176c-27.552-8.080-56.48-14.416-86.48-18.864-10.912-36.96-23.792-67.984-38.112-91.456 8.912 1.456 17.712 3.232 26.416 5.264 37.2 22.832 70.688 59.168 98.176 105.056zM623.36 662.656c10.064-41.536 17.872-88.832 22.816-140.112 44.288-3.68 85.808-9.136 123.552-16.080-6.736 44.544-17.808 86.64-32.496 124.944-34.976 13.712-73.264 24.32-113.872 31.248zM421.216 3.12c8.704-2.032 17.504-3.808 26.416-5.264-14.32 23.472-27.2 54.496-38.112 91.456-30 4.448-58.928 10.8-86.48 18.864 27.488-45.888 60.976-82.224 98.176-105.056zM847.040 175.28c-26.72-18.064-56.672-33.984-89.264-47.312-15.152-31.728-32.784-60.432-52.512-85.376 57.488 31.904 106.192 77.632 141.776 132.688zM910.72 391.328c0 10.48-0.528 20.832-1.328 31.104-20.912 10.736-52.336 22.416-93.776 32.96 1.040-15.808 1.568-31.84 1.568-48.064 0-23.6-1.152-46.768-3.328-69.424 42.816 10.784 75.136 22.8 96.352 33.792 0.336 6.512 0.512 13.056 0.512 19.632zM452.992 84.288c18.096-54.816 37.408-81.696 49.696-91.44 3.104-0.064 6.192-0.24 9.328-0.24s6.208 0.16 9.328 0.24c12.272 9.744 31.6 36.64 49.696 91.44-19.344-1.616-39.008-2.544-59.008-2.544s-39.696 0.928-59.040 2.544zM318.736 42.576c-19.712 24.944-37.36 53.648-52.512 85.376-32.576 13.344-62.528 29.248-89.264 47.312 35.584-55.040 84.288-100.768 141.776-132.688zM766.112 286.64c-36.56-6.592-76.56-11.792-119.152-15.36-4.56-50.912-11.888-98.096-21.472-139.792 35.904 6.256 69.92 15.408 101.472 27.024 17.168 38.656 30.528 81.888 39.152 128.128zM190.64 627.296c19.856 12.384 41.312 23.616 64.144 33.584 8.176 19.728 17.264 38.448 27.2 56.032-35.040-24.784-65.92-55.040-91.344-89.616zM611.76 704.864c36.112-5.2 70.704-13.136 103.216-23.52-15.552 30.224-33.552 57.024-53.424 79.616-26.528 10.752-54.48 18.72-83.488 23.552 12.48-21.136 23.824-48.048 33.696-79.648zM480 876.080v-64.080h64v132h-64z" />
<glyph unicode="&#x4e;" d="M969.504 178.672l-83.568 480.464h-137.392l0.016-6.864 0.080-41.648v-0.288h81.52l72.64-382.864h-781.968l87.168 382.864h480.208l-0.080 33.040-0.032 15.76h-533.312l-100.288-480.464zM742.352 542.72l-10.928-14.736c-3.008-4.064-7.76-6.464-12.816-6.464 0 0-0.016 0-0.032 0-5.040 0-9.792 2.384-12.816 6.416l-14.256 19.072c-2.064 2.752-3.184 6.112-3.184 9.552l-0.064 34.752v3.056h-467.472l-79.888-350.88h71.92c-10.496 10.992-5.92 34.4 13.84 34.4s24.32-23.392 13.84-34.4h642.992l-66.576 350.88h-68.24l0.064-30.608 0.016-7.072c0-3.44-1.104-6.8-3.152-9.568l-3.248-4.4zM266.656 302.864c-25.792 0-25.792 40 0 40s25.808-40 0-40zM326.672 342.88c-25.792 0-25.792 40 0 40s25.792-40 0-40zM406.688 342.88c-25.792 0-25.792 40 0 40s25.792-40 0-40zM486.688 342.88c-25.792 0-25.792 40 0 40s25.808-40 0-40zM566.704 342.88c-25.792 0-25.792 40 0 40s25.808-40 0-40zM649.216 347.872c-25.792 0-25.792 40 0 40s25.808-40 0-40zM709.232 392.88c-25.792 0-25.792 40 0 40s25.792-40 0-40zM724.224 468.72c-25.792 0-25.792 40 0 40s25.808-40 0-40zM763.28 805.76l-0.128 66.512 24.192 0.048c-0.032 14.384-30.944 25.984-69.12 25.984-0.128 0-0.256 0-0.368 0-38.352-0.080-69.424-11.84-69.392-26.256l24.192 0.048 0.128-66.528c-28.48-15.968-47.744-46.432-47.664-81.408l186.16 0.368c-0.064 34.976-19.44 65.376-48 81.232zM704.096 659.136l0.032-15.728 0.080-33.072 0.032-16v-3.008l0.064-34.752 0.928-1.248 13.328-17.824 10.928 14.736 3.264 4.384-0.016 7.072-0.064 30.64-0.032 16v0.256l-0.080 41.648-0.016 6.896-0.064 29.344-0.032 18.352-28.448-0.048 0.032-11.12 0.064-34.912z" />
<glyph unicode="&#x50;" d="M792.73 387.226c-20.838 21.402-240.384 230.502-240.384 230.502-11.162 11.418-25.754 17.152-40.346 17.152-14.644 0-29.236-5.734-40.346-17.152 0 0-219.546-209.102-240.436-230.502-20.838-21.402-22.272-59.904 0-82.74 22.324-22.784 53.402-24.626 80.69 0l200.090 191.846 200.038-191.846c27.342-24.626 58.47-22.784 80.692 0 22.322 22.886 20.942 61.39 0 82.74z" />
<glyph unicode="&#x52;" d="M408.742 259.304c0 29.282-23.786 53.068-53.032 53.068-29.32 0-53.106-23.788-53.106-53.068s23.786-53.068 53.106-53.068c29.244 0 53.032 23.75 53.032 53.068zM366.588 225.47c-15.016 0-27.212 12.196-27.212 27.288 0 14.98 12.194 27.212 27.212 27.212s27.174-12.196 27.174-27.212c0-15.054-12.156-27.288-27.174-27.288zM575.326 259.304c0-29.282 23.674-53.068 52.994-53.068s53.068 23.788 53.068 53.068-23.75 53.068-53.068 53.068c-29.282 0-52.994-23.788-52.994-53.068zM617.48 279.968c15.018 0 27.212-12.196 27.212-27.212-0.038-15.054-12.196-27.288-27.212-27.288s-27.212 12.196-27.212 27.288c0 14.98 12.196 27.212 27.212 27.212zM374.754 124.864h229.25c0 0-110.992-121.908-229.25 0zM946.204 537.52l0.076 1.13c0.528 7 0.98 14.038 0.98 21.152 0 134.516-49.040 192.102-141.706 276.372-88.034 79.942-178.514 123.826-310.998 123.826-132.408 0-222.89-43.886-310.922-123.826-92.662-84.158-141.78-141.856-141.78-276.372 0-5.194 0.338-10.388 0.564-15.62l0.226-6.662c-23.674-1.318-42.644-19.722-42.644-42.68v-286.458c0-23.938 20.022-43.322 44.902-43.322h15.356c8.844-8.808 20.964-13.888 33.686-13.888h45.88c2.032 0 4.064 0.264 6.060 0.566 72.152-129.474 199.102-215.662 343.478-215.662 145.168 0 272.796 87.054 344.758 217.658 4.742-1.504 9.786-2.522 15.054-2.522h45.956c12.76 0 24.728 4.968 33.384 13.888h15.544c24.802 0 44.864 19.422 44.864 43.322v286.458c0 22.92-19.006 41.476-42.718 42.642zM801.788 215.796c-58.338-128.832-176.294-216.98-312.428-216.98-128.644 0-241.144 78.774-302.302 196.24 0.038 0.528 0.112 0.98 0.112 1.504v202.188h72.152l159.206 118.37-63.72-119.462c0 0 271.442-56.418 446.98-11.254v-170.61zM870.552 551.936c-57.66 158.718-206.742 245.772-381.19 245.772-173.658 0-322.25-86.416-380.326-243.966 3.612 213.028 142.306 344.156 394.928 344.156 226.84 0 372.572-131.128 376.11-345.962h-9.522z" horiz-adv-x="990" />
<glyph unicode="&#x53;" d="M542.414 66.888c1.934-10.64 6.666-20.366 13.506-28.804-121.518-11.304-228.73 24.206-319.016 106.794-76.134 69.622-119.020 156.938-130.632 259.318-24.34 214.508 129.608 416.122 342.528 448.81 20.736 3.184 41.718 4.7 62.586 6.984 1.476 0 2.958 0 4.434 0 22.344-2.324 44.932-3.318 67.010-7.158 110.736-19.302 199.414-74.722 265.728-165.356 37.632-51.476 61.952-108.76 71.69-171.048l-118.088-19.15c-2.56 0.85-5.408 1.638-8.96 2.416-20.53 4.486-27.086 13.722-21.32 33.936 3.85 13.476 10.188 26.276 15.954 39.158 6.020 13.444 10.044 26.696 6.952 41.964-2.774 13.722-2.356 27.72 10.198 39.24-11.694 13.302-22.496 26.184-34.018 38.38-5.438 5.744-9.994 3.656-11.674-4.404-0.41-1.976-0.338-4.056-0.798-6.022-4.24-17.962-15.318-22.076-29.808-11.1-2.418 1.844-4.536 4.444-7.25 5.396-4.558 1.596-9.738 3.634-14.222 2.878-15.576-2.642-18.144-0.778-16.754 14.664 0.994 10.894-2.836 15.022-13.63 14.52-3.698-0.184-7.384-0.942-11.080-1.024-11.674-0.184-18.986 8.664-16.108 19.958 1.496 5.836 4.722 11.222 6.124 17.060 1.054 4.342 2.406 11.080 0.196 13.26-8.918 8.754-18.524 17.202-29.072 23.84-18.986 11.98-38.186 3.216-57.068-1.22-2.028-15.42-4.148-17.5-18.852-13.138-17.49 5.222-34.12 12.524-46.038 27.556-1.496 1.904-5.080 3.38-7.464 3.124-18.052-2.058-36.064-4.424-54.006-7.22-2.58-0.42-6.626-3.88-6.584-5.878 0.060-3.462 2.346-9.422 4.496-9.8 5.826-1.024 12.584-1.004 18.012 1.074 7.424 2.878 13.732 8.5 20.952 12.084 8.746 4.342 15.062 1.136 17.55-8.306 2.96-11.182-1.034-20.664-10.148-26.48-12.42-7.894-26.040-13.916-38.902-21.156-9.032-5.058-18.288-10.056-26.308-16.498-6.44-5.18-10.926-13.22-5.806-21.484 4.75-7.68 13.2-5.878 20.204-3.4 7.188 2.54 13.998 6.298 20.694 10.034 4.086 2.284 7.444 5.836 11.448 8.284 7.988 4.864 12.238 3.214 15.288-5.458 5.12-14.582 14.88-17.962 27.936-9.502 5.642 3.656 10.722 8.284 16.61 11.458 8.684 4.68 17.992-0.298 18.832-9.42 1.23-13.364 4.342-15.964 17.592-14.48 7.812 0.88 15.606 2.038 23.408 3.082 0.686-0.798 1.372-1.576 2.058-2.376-2.724-5.080-4.302-11.54-8.418-14.92-6.36-5.182-14.192-8.836-21.852-12.104-11.13-4.74-21.134-7.598-21.514-8.242 0 0 15.626-6.318 7.384-8.664-13.578-3.84-34.13-25.856-4.608-16.722 5.294 1.618 10.702 2.918 18.134 4.936-6.206-18.678-19.332-26.020-32.328-32.982-38.87-20.798-40.242-70.636-20.398-96.216 4.3-5.56 7.894-11.796 10.948-18.134 3.534-7.3 3.288-16.056-3.726-19.896-4.71-2.58-14.192-2.038-18.392 1.178-10.22 7.822-19.476 17.336-27.514 27.484-10.22 12.86-17.572 28.14-28.384 40.396-34.94 39.558-74.372 30.844-108.134 1.066-8.54-7.538-7.414-14.356 2.008-20.562 3.348-2.18 7.014-4.024 10.742-5.52 14.99-6.062 30.084-11.836 45.076-17.88 3.082-1.238 6.246-2.682 8.806-4.74 5.192-4.178 5.478-8.644-1.3-11.336-4.956-1.956-10.272-3.144-15.514-4.28-9.842-2.14-20.264-2.744-29.44-6.462-5.324-2.162-11.428-8.754-12.134-14.020-0.604-4.496 5.366-10.64 9.646-14.776 3.194-3.062 8.582-3.716 12.564-6.164 5.54-3.36 11.51-6.636 15.822-11.304 7.29-7.894 12.442-9.86 21.894-4.576 9.104 5.078 17.87 10.742 26.654 16.364 10.414 6.636 12.38 5.816 18.392-4.844 7.464-13.26 17.756-24.178 34.468-21.216 11.94 2.14 23.264 7.64 34.888 11.562 7.916 2.682 15.718 6.584 23.85 7.538 16.64 1.996 29.39-12.082 30.332-31.58 0.932-19.496-8.1-34.1-21.862-46.776-13.496-12.422-20.756-26.624-14.552-45.916 6.606-20.52-0.43-38.144-16.128-51.784-10.884-9.482-22.928-17.706-34.94-25.784-14.070-9.442-37.488-61.226-32.328-79.462 0.984-3.42 1.27-3.88 1.014-7.578-1.342-19.436-11.314-16.014-28.682-19.058-9.81-1.72-8.846 19.058-11.090 28.558-2.162 9.124-2.15 19.26-0.726 28.6 1.392 9.174 5.704 17.9 8.846 26.778 6.564 18.616 1.812 34.458-11.858 47.964-5.98 5.918-12.534 11.284-18.678 17.038-22.344 20.9-33.188 47.176-34.366 77.28-0.594 15.154 6.85 22.058 21.872 23.48 3.144 0.298 6.276 0.716 9.43 1.076-1.762 12.596-6.38 17.376-18.698 18.156-11.704 0.716-18.514 7.322-23.020 16.956-2.098 4.496-2.478 9.778-4.25 14.458-4.228 11.162-7.2 23.276-13.762 32.922-5.918 8.684-10.762 16.178-10.536 27.218 0.102 5.162-3.604 11.162-7.2 15.442-8.142 9.656-17.162 18.596-26.082 27.576-3.502 3.522-7.7 6.358-13.486 11.038-0.4-8.836-0.41-14.562-0.964-20.204-0.798-7.998-0.892-16.344-3.452-23.776-1.424-4.156-7.516-9.698-11.008-9.358-4.444 0.42-10.866 5.458-12.032 9.718-2.14 7.802-2.714 16.844-1.064 24.782 7.73 37.244 11.008 74.62 6.666 112.496-1.586 13.876-3.512 27.7-5.468 43.080-72.714-85.544-107.552-240.956-36.024-378.318 66.364-127.438 198.176-200.090 336.672-191.068-0.87-7.976-0.472-16.148 1.424-24.31zM665.262 137.432c-13.384 4.68-29.286 5.5-45.578 1.464-36.178-9.072-59.852-38.86-52.91-66.6 4.054-25.702 41.892-42.894 77.988-33.812 31.794 7.864 53.934 31.958 54.108 56.484h0.030l0.86 259.062 186.85 34.15v-208.24c-13.588 4.802-29.86 5.642-46.346 1.556-36.548-9.164-60.456-39.24-53.452-67.308 6.994-27.996 42.28-43.304 78.818-34.254 33.29 8.408 54.62 31.242 54.62 59.862v345.63l-254.996-41.35v-306.646z" />
<glyph unicode="&#x54;" d="M53.286 861.316c-6.476 0-12.954 1.442-19.364 4.392-6.476 2.918-12.118 6.572-16.96 10.966s-8.914 9.49-12.118 15.356c-3.238 5.836-4.842 12.408-4.842 19.718 0 5.834 1.602 11.702 4.842 17.536s7.278 11.318 12.118 16.448c4.842 5.13 10.484 8.786 16.96 10.966 6.412 2.212 12.888 3.302 19.364 3.302h809.030c8.078 0 15.356-1.090 21.834-3.302 6.412-2.18 12.12-5.866 16.928-10.966 4.842-5.162 8.496-10.644 10.9-16.448 2.438-5.866 3.654-11.702 3.654-17.536 0-7.342-1.218-13.916-3.654-19.718-2.404-5.866-6.028-10.964-10.9-15.356-4.808-4.392-10.516-8.048-16.928-10.966-6.476-2.95-13.754-4.392-21.834-4.392h-809.030zM53.286 666.16c-6.476 0-12.954 1.442-19.364 4.392-6.476 2.918-12.118 6.572-16.96 10.966s-8.914 9.49-12.118 15.356c-3.238 5.836-4.842 12.408-4.842 19.718 0 5.836 1.602 11.702 4.842 17.57 3.238 5.834 7.278 10.964 12.118 15.356s10.484 8.014 16.96 10.964c6.412 2.886 12.888 4.36 19.364 4.36h787.26l-462.674-98.684h-324.586zM53.286 471.036c-6.476 0-12.954 1.442-19.364 4.392-6.476 2.918-12.086 6.572-16.96 10.964-4.842 4.392-8.882 9.49-12.118 15.358-3.238 5.802-4.842 12.376-4.842 19.686 0 5.836 1.602 11.702 4.842 17.538s7.278 10.964 12.118 15.356c4.842 4.392 10.484 8.014 16.96 10.964 6.444 2.918 12.92 4.392 19.364 4.392h324.586v-98.684h-324.586zM53.286 275.848c-6.476 0-12.954 1.442-19.364 4.392-6.476 2.918-12.086 6.572-16.96 10.996-4.842 4.392-8.882 9.49-12.118 15.356-3.238 5.802-4.842 12.376-4.842 19.686 0 5.836 1.602 11.67 4.842 17.538 3.238 5.836 7.278 10.996 12.118 15.356 4.842 4.392 10.484 8.014 16.96 10.966 6.444 2.918 12.92 4.392 19.364 4.392h324.586v-98.684h-324.586zM0 131.124c0 5.836 1.602 11.67 4.842 17.538 3.238 5.836 7.278 10.966 12.118 15.356s10.484 8.014 16.96 10.966c6.444 2.918 12.92 4.392 19.364 4.392h203.492c-4.842-7.342-9.682-15.004-14.556-23.052-4.842-8.048-8.882-16.096-12.086-24.11-3.27-8.048-6.060-16.448-8.496-25.2s-3.622-17.538-3.622-26.322h-164.73c-6.476 0-12.954 1.442-19.364 4.392-6.476 2.918-12.086 6.572-16.96 10.966-4.842 4.424-8.882 9.522-12.118 15.356s-4.842 12.408-4.842 19.718zM918.070 648.622c14.524 2.918 28.246 2.918 41.166 0 12.89-2.95 24.238-8.048 33.922-15.358 9.716-7.342 17.346-16.448 23.020-27.412 5.644-10.966 8.496-23.020 8.496-36.166v-421.026c-1.634-16.096-6.028-31.068-13.336-44.918-7.278-13.948-16.928-26.322-29.048-37.288s-25.874-19.366-41.166-25.2c-15.356-5.866-32.734-8.754-52.1-8.754-17.794 0-34.722 3.302-50.85 9.876-16.158 6.572-30.716 15.356-43.602 26.29-12.922 10.966-22.634 23.726-29.048 38.376-6.476 14.588-9.716 30.682-9.716 48.22 0 16.096 3.238 31.42 9.716 46.072 6.412 14.588 16.126 27.764 29.048 39.466 12.89 11.67 27.444 20.456 43.602 26.29 16.126 5.836 33.054 8.754 50.85 8.754 3.238 0 6.060 0 8.496 0s4.456 0 6.060 0c1.572 0 3.624-0.384 6.028-1.090 2.404-0.736 4.456-1.090 6.060-1.090v197.368l-322.182-54.824v-339.88l-2.438-2.18c0-1.476 0-2.95 0-4.392 0-1.476 0.384-2.95 1.218-4.392 0.77-1.476 1.218-2.95 1.218-4.392 0-1.476 0-2.95 0-4.392 0-16.096-3.624-31.804-10.9-47.162s-16.96-28.502-29.078-39.434c-12.086-10.996-26.258-19.398-42.384-25.232-16.158-5.866-33.92-8.752-53.286-8.752-17.794 0-35.14 2.918-52.098 8.754s-31.484 14.236-43.604 25.232c-12.118 10.966-21.416 24.11-27.86 39.436-6.476 15.356-9.682 31.068-9.682 47.162 0 17.538 3.238 33.6 9.682 48.252 6.444 14.588 15.742 27.38 27.86 38.346 12.086 10.966 26.642 19.75 43.604 26.322s34.274 9.876 52.098 9.876c3.206 0 5.642 0 7.278 0 1.572 0 3.622-0.384 6.060-1.090 2.404-0.736 4.842-1.090 7.278-1.090 2.404 0 4.424 0 6.060 0v293.84c0 14.588 2.788 28.118 8.464 40.558 5.642 12.408 13.336 24.11 23.020 35.074s20.968 20.070 33.922 27.412c12.89 7.31 26.644 12.408 41.166 15.358l326.99 59.186z" horiz-adv-x="1026" />
<glyph unicode="&#x57;" d="M992 256h-192q-13 0-22.5 9.5t-9.5 22.5v64q0 13 9.5 22.5t22.5 9.5h192q13 0 22.5-9.5t9.5-22.5v-64q0-13-9.5-22.5t-22.5-9.5zM832 896q0 27 18.5 45.5t45.5 18.5 45.5-18.5 18.5-45.5v-448h-128v448zM608 576h-192q-13 0-22.5 9.5t-9.5 22.5v64q0 13 9.5 22.5t22.5 9.5h192q13 0 22.5-9.5t9.5-22.5v-64q0-13-9.5-22.5t-22.5-9.5zM448 896q0 27 19 45.5t45 18.5 45-18.5 19-45.5v-128h-128v128zM224 128h-192q-13 0-22.5 9.5t-9.5 22.5v64q0 13 9.5 22.5t22.5 9.5h192q13 0 22.5-9.5t9.5-22.5v-64q0-13-9.5-22.5t-22.5-9.5zM64 896q0 27 18.5 45.5t45.5 18.5 45.5-18.5 18.5-45.5v-576h-128v576zM192 0q0-26-18.5-45t-45.5-19-45.5 19-18.5 45v64h128v-64zM576 0q0-26-19-45t-45-19-45 19-19 45v512h128v-512zM960 0q0-26-19-45t-45.5-19-45 19-18.5 45v192h128v-192z" />
<glyph unicode="&#x58;" d="M647.6 526.224l-110.896-58.784c-28.96-15.36-64.656-51.424-79.712-80.576l-58.064-112.288c-15.040-29.136-3.504-40.832 25.808-26.144l110.8 55.504c29.296 14.704 64.944 50.4 79.568 79.728l58.448 117.232c14.624 29.36 3.008 40.704-25.952 25.328zM549.824 353.328l-35.744-16.64c-29.648-13.792-41.824-2.88-27.168 24.4 6.528 12.192 12.512 23.344 17.136 31.952 5.152 9.632 15.936 11.52 24.080 4.208l24.912-22.352c8.128-7.296 6.672-16.96-3.216-21.568zM538.304 768.64c-24.784 0-48.944-2.56-72.416-7.056 12.256 14.48 19.92 32.992 19.92 53.504 0 45.968-37.328 79.088-83.296 79.088-46.176 0-83.344-33.12-83.344-79.088 0-38.816 26.448-70.992 62.336-80.304-133.12-59.92-225.936-193.424-225.936-348.864 0-211.36 171.376-382.704 382.752-382.704s382.752 171.344 382.752 382.704c-0.016 211.376-171.392 382.72-382.768 382.72zM369.84 813.904c0 17.344 13.968 31.312 31.168 31.312 17.312 0 31.264-13.968 31.264-31.312 0-17.136-13.952-31.12-31.264-31.12-17.2 0-31.168 13.984-31.168 31.12zM539.664 110.224c-152.016 0-275.136 123.216-275.136 275.328 0 151.968 123.12 275.184 275.136 275.184 152.112 0 275.328-123.216 275.328-275.184 0-152.112-123.216-275.328-275.328-275.328z" />
<glyph unicode="&#x59;" d="M413.87 960h-87.378v-711.986c-48.312 18.586-110.832 18.846-172.5-3.572-110.484-40.208-176.312-138.010-147.042-218.418 29.282-80.428 142.576-113.010 253.048-72.802 93.838 34.14 155.224 109.828 153.72 181.116l0.154 582.274c152.358-24.010 162.784-216.61 144.538-270.62-6.928-20.47 5.274-35.796 28.302 0 164.276 255.542-172.838 368.29-172.838 514.004z" horiz-adv-x="632" />
<glyph unicode="&#x5a;" d="M960 384h-320q0-26-19-45t-45-19h-128q-27 0-45.5 19t-18.5 45h-320q-27 0-45.5 19t-18.5 45.5 18.5 45 45.5 18.5h320q0 27 18.5 45.5t45.5 18.5h128q27 0 45.5-18.5t18.5-45.5h320q27 0 45.5-18.5t18.5-45-18.5-45.5-45.5-19zM576 512h-128v-128h128v128zM960 768h-64q0-26-19-45t-45-19h-128q-27 0-45.5 19t-18.5 45h-576q-27 0-45.5 19t-18.5 45.5 18.5 45 45.5 18.5h576q0 27 18.5 45.5t45.5 18.5h128q27 0 45.5-18.5t18.5-45.5h64q27 0 45.5-18.5t18.5-45-18.5-45.5-45.5-19zM832 896h-128v-128h128v128zM64 128h64q0 27 18.5 45.5t45.5 18.5h128q26 0 45-18.5t19-45.5h576q27 0 45.5-18.5t18.5-45-19-45.5-45-19h-576q0-27-19-45.5t-45-18.5h-128q-27 0-45.5 19t-18.5 45h-64q-27 0-45.5 19t-18.5 45.5 18.5 45 45.5 18.5zM192 0h128v128h-128v-128z" />
<glyph unicode="&#x5e;" d="M853.342 960h-682.656c-93.874 0-170.686-76.81-170.686-170.69v-682.622c0-93.938 76.812-170.688 170.686-170.688h682.656c93.876 0 170.658 76.75 170.658 170.69v682.62c0 93.88-76.782 170.69-170.658 170.69zM838.052 618.166c0.328-7.342 0.49-14.728 0.49-22.148 0-226.214-169.216-487.068-478.658-487.068-95.004 0-183.434 28.348-257.886 76.918 13.16-1.588 26.552-2.394 40.13-2.394 78.822 0 151.358 27.37 208.934 73.282-73.616 1.38-135.744 50.876-157.154 118.882 10.274-2 20.812-3.074 31.652-3.074 15.344 0 30.206 2.096 44.32 6.008-76.96 15.732-134.95 84.916-134.95 167.856 0 0.722 0 1.438 0.016 2.152 22.68-12.82 48.624-20.52 76.2-21.41-45.142 30.698-74.842 83.092-74.842 142.488 0 31.37 8.294 60.778 22.778 86.058 82.974-103.57 206.936-171.72 346.754-178.862-2.87 12.532-4.358 25.596-4.358 39.014 0 94.538 75.326 171.18 168.23 171.18 48.39 0 92.118-20.786 122.802-54.058 38.32 7.676 74.324 21.92 106.832 41.542-12.562-39.976-39.234-73.522-73.966-94.71 34.026 4.138 66.452 13.34 96.62 26.954-22.546-34.324-51.070-64.476-83.944-88.61z" />
<glyph unicode="&#x61;" d="M505.446 952.27c-271.462-3.634-488.55-226.61-484.916-498.022 3.634-271.462 226.61-488.55 498.074-484.966 271.412 3.686 488.55 226.61 484.914 498.074-3.738 271.462-226.714 488.55-498.074 484.914zM517.172 72.806c-214.272-2.918-390.298 168.5-393.216 382.822-2.816 214.272 168.55 390.298 382.874 393.166 214.272 2.866 390.298-168.498 393.166-382.822s-168.5-390.246-382.822-393.166zM279.194 230.194c0 0 233.932 32.102 333.722 131.89 99.788 99.79 131.89 333.722 131.89 333.722s-233.882-32.154-333.67-131.892c-99.788-99.84-131.942-333.722-131.942-333.722zM461.568 513.434c41.932 41.984 122.112 71.73 190.924 90.214-18.482-68.658-48.384-149.454-90.062-191.078-27.852-27.852-73.010-27.852-100.864 0-27.904 27.852-27.904 73.012 0 100.864z" />
<glyph unicode="&#x62;" d="M1009.614 958.464c-34.816 34.868-68.096 1.894-180.992-52.326-302.080-145.254-828.62-440.27-828.62-440.27l452.352-64.666 64.666-452.404c0 0 295.066 526.542 440.27 828.622 54.322 112.946 87.194 146.124 52.326 181.042zM901.12 842.034l-328.602-610.15-33.332 277.3 361.932 332.85z" />
<glyph unicode="&#x63;" d="M512 911.36c-248.832 0-450.56-201.728-450.56-450.56 0-113.766 42.138-217.652 111.718-296.91 70.45 70.452 167.014 110.028 277.862 106.446 141.362-4.558 252.928-71.526 316.928-180.378 117.556 81.306 194.61 217.038 194.61 370.842 0 248.832-201.778 450.56-450.56 450.56zM732.314 300.186c-7.936-13.158-24.934-17.202-37.99-9.268-104.346 63.744-235.622 78.13-390.246 42.854-14.848-3.43-29.748 5.888-33.074 20.838-3.43 14.848 5.836 29.696 20.786 33.076 169.164 38.656 314.318 21.966 431.36-49.46 13.004-7.986 17.152-24.986 9.164-38.042zM786.586 427.98c-9.984-16.282-31.284-21.35-47.566-11.316-119.296 73.318-301.362 94.566-442.572 51.712-18.33-5.53-37.682 4.812-43.212 23.040-5.53 18.33 4.814 37.682 23.040 43.214 161.332 48.998 361.882 25.292 498.996-58.982 16.282-10.086 21.452-31.284 11.316-47.668zM791.296 560.384c-143.104 85.094-379.29 92.826-515.942 51.404-21.914-6.706-45.106 5.734-51.866 27.648-6.604 21.964 5.786 45.21 27.75 51.814 156.928 47.668 417.69 38.45 582.452-59.392 19.764-11.726 26.266-37.222 14.542-56.934-11.726-19.712-37.12-26.164-56.934-14.542zM448.102 135.628c-63.386 2.048-116.174-22.682-154.676-68.914 64.716-35.942 139.214-56.474 218.574-56.474 38.246 0 75.418 4.762 110.848 13.774-33.996 69.734-93.236 109.004-174.746 111.616z" />
<glyph unicode="&#x64;" d="M192 381.714v-443.43c10.454-1.496 21.134-2.286 32-2.286h32v448.002h-32c-10.866 0-21.546-0.79-32-2.286zM768 384v-448h32c10.868 0 21.546 0.79 32 2.286v443.428c-10.454 1.496-21.132 2.286-32 2.286h-32zM1024 448c0 282.77-229.23 512-512 512s-512-229.23-512-512c0-61.418 10.828-120.306 30.656-174.874-19.472-33.202-30.656-71.852-30.656-113.126 0-89.354 52.326-166.478 128-202.432v404.864c-20.126-9.562-38.58-22.060-54.858-36.904-5.992 29.22-9.142 59.478-9.142 90.472 0 247.424 200.576 448 448 448s448-200.576 448-448c0-30.994-3.148-61.252-9.142-90.472-16.28 14.844-34.73 27.342-54.858 36.904v-404.864c75.676 35.954 128 113.078 128 202.432 0 41.274-11.184 79.924-30.656 113.126 19.828 54.568 30.656 113.456 30.656 174.874z" />
<glyph unicode="&#x65;" d="M1024 512h-100.924c-27.64 178.24-168.836 319.436-347.076 347.076v100.924h-128v-100.924c-178.24-27.64-319.436-168.836-347.076-347.076h-100.924v-128h100.924c27.64-178.24 168.836-319.436 347.076-347.076v-100.924h128v100.924c178.24 27.64 319.436 168.836 347.076 347.076h100.924v128zM792.822 512h-99.762c-19.284 54.55-62.51 97.778-117.060 117.060v99.762c107.514-24.49 192.332-109.31 216.822-216.822zM512 384c-35.346 0-64 28.654-64 64s28.654 64 64 64c35.346 0 64-28.654 64-64s-28.654-64-64-64zM448 728.822v-99.762c-54.55-19.282-97.778-62.51-117.060-117.060h-99.762c24.49 107.512 109.31 192.332 216.822 216.822zM231.178 384h99.762c19.282-54.55 62.51-97.778 117.060-117.060v-99.762c-107.512 24.49-192.332 109.308-216.822 216.822zM576 167.178v99.762c54.55 19.284 97.778 62.51 117.060 117.060h99.762c-24.49-107.514-109.308-192.332-216.822-216.822z" />
<glyph unicode="&#x66;" d="M512 960c-176.732 0-320-143.268-320-320 0-320 320-704 320-704s320 384 320 704c0 176.732-143.27 320-320 320zM512 444c-108.248 0-196 87.752-196 196s87.752 196 196 196 196-87.752 196-196-87.752-196-196-196zM388 640c0 68.482 55.516 124 124 124s124-55.518 124-124c0-68.482-55.518-124-124-124-68.484 0-124 55.518-124 124z" />
<glyph unicode="&#x67;" d="M512 960c-176.732 0-320-143.268-320-320 0-320 320-704 320-704s320 384 320 704c0 176.732-143.27 320-320 320zM512 448c-106.040 0-192 85.96-192 192s85.96 192 192 192 192-85.96 192-192-85.96-192-192-192z" />
<glyph unicode="&#x68;" d="M1024 192q0-106-75-181t-181-75v512q31 0 64-8v72q0 148-82.5 234t-237.5 86-237.5-86-82.5-234v-72q33 8 64 8v-512q-106 0-181 75t-75 181q0 96 64 169v151q0 91 35.5 174t95.5 143 143 95.5 174 35.5 174-35.5 143-95.5 95.5-143 35.5-174v-151q64-73 64-169z" />
<glyph unicode="&#x6a;" d="M0 768l320 128v-768l-320-128zM704 768v-768l-320 106.666v768zM1024 896v-768l-256-102.4v768z" />
<glyph unicode="&#x6b;" d="M672 768l-320 128-352-128v-768l352 128 320-128 352 128v768l-352-128zM384 814.27l256-102.4v-630.138l-256 102.398v630.14zM64 723.172l256 93.090v-631.8l-256-93.088v631.798zM960 172.828l-256-93.092v631.8l256 93.090v-631.798z" />
<glyph unicode="&#x6c;" d="M734.994 154.626c-18.952 2.988-19.384 54.654-19.384 54.654s55.688 54.656 67.824 128.152c32.652 0 52.814 78.138 20.164 105.628 1.362 28.94 41.968 227.176-163.598 227.176s-164.958-198.236-163.598-227.176c-32.654-27.49-12.488-105.628 20.162-105.628 12.134-73.496 67.826-128.152 67.826-128.152s-0.432-51.666-19.384-54.654c-61.048-9.632-289.006-109.316-289.006-218.626h768c0 109.31-227.958 208.994-289.006 218.626zM344.054 137.19c44.094 27.15 97.626 52.308 141.538 67.424-15.752 22.432-33.294 52.936-44.33 89.062-15.406 12.566-27.944 30.532-35.998 52.602-8.066 22.104-11.122 46.852-8.608 69.684 1.804 16.392 6.478 31.666 13.65 45.088-4.35 46.586-7.414 138.034 52.448 204.732 23.214 25.866 52.556 44.46 87.7 55.686-6.274 64.76-39.16 140.77-166.454 140.77-205.564 0-164.958-198.236-163.598-227.176-32.654-27.49-12.488-105.628 20.162-105.628 12.134-73.496 67.826-128.152 67.826-128.152s-0.432-51.666-19.384-54.654c-61.048-9.634-289.006-109.318-289.006-218.628h329.596c4.71 3.074 9.506 6.14 14.458 9.19z" />
<glyph unicode="&#x6d;" d="M960 384h-512q-26 0-45 18.5t-19 45 19 45.5 45 19h512q26 0 45-19t19-45.5-19-45-45-18.5zM960 768h-512q-26 0-45 18.5t-19 45 19 45.5 45 19h512q26 0 45-19t19-45.5-19-45-45-18.5zM192-64h-128q-27 0-45.5 19t-18.5 45v128q0 26 18.5 45t45.5 19h128q26 0 45-19t19-45v-128q0-27-19-45.5t-45-18.5zM192 320h-128q-27 0-45.5 18.5t-18.5 45.5v128q0 26 18.5 45t45.5 19h128q26 0 45-19t19-45v-128q0-27-19-45.5t-45-18.5zM192 704h-128q-27 0-45.5 18.5t-18.5 45.5v128q0 26 18.5 45t45.5 19h128q26 0 45-19t19-45v-128q0-27-19-45.5t-45-18.5zM448 128h512q26 0 45-19t19-45.5-19-45-45-18.5h-512q-27 0-45.5 18.5t-18.5 45 18.5 45.5 45.5 19z" />
<glyph unicode="&#x6e;" d="M864 832l-480-480-224 224-160-160 384-384 640 640z" />
<glyph unicode="&#x6f;" d="M448 165.49l-205.254 237.254 58.508 58.51 146.746-114.744 274.744 242.744 58.512-58.508zM831.772 832c0.078-0.066 0.162-0.15 0.228-0.23v-767.542c-0.066-0.078-0.15-0.162-0.228-0.228h-639.544c-0.080 0.066-0.162 0.15-0.228 0.228v767.544c0.066 0.080 0.15 0.162 0.23 0.228h-128.23v-768c0-70.4 57.6-128 128-128h640c70.4 0 128 57.6 128 128v768h-128.228zM640 832v64c0 35.346-28.654 64-64 64h-128c-35.346 0-64-28.654-64-64v-64h-128v-128h512v128h-128zM576 832h-128v64h128v-64z" />
<glyph unicode="&#x71;" d="M896-64h-768q-53 0-90.5 37.5t-37.5 90.5v768q0 53 37.5 90t90.5 37h768q53 0 90.5-37t37.5-90v-768q0-53-37.5-90.5t-90.5-37.5zM896 768q0 26-18.5 45t-45.5 19h-640q-27 0-45.5-19t-18.5-45v-640q0-27 18.5-45.5t45.5-18.5h640q27 0 45.5 18.5t18.5 45.5v640zM606 448l142-142q20-20 20-47.5t-19.5-46.5-47-19-47.5 19l-142 142-142-143q-20-19-47-19t-46.5 19.5-19.5 47 19 46.5l143 143-144 143q-19 20-19 47.5t19 46.5 46.5 19 47.5-19l143-144 144 144q19 19 46.5 19t47-19.5 19.5-47-20-46.5z" />
<glyph unicode="&#x72;" d="M690.364 104.986v383.116l225.64 36.6c-35.932 190.474-203.086 334.572-404.002 334.572-227.174 0-411.308-184.134-411.308-411.274 0-227.174 184.134-411.274 411.308-411.274 22.020 0 43.64 1.768 64.692 5.072 16.514 27.424 46.142 49.378 83.776 58.854 9.942 2.436 19.952 3.938 29.894 4.336zM347.416 784.54l85.746-178.496-34.464-27.458-144.866 131.452c21.752 46.844 93.584 74.5 93.584 74.5zM564.682-29.134c2.002-11.010 6.34-21.318 12.678-30.494-21.42-2.802-43.206-4.37-65.36-4.37-282.324 0-512 229.71-512 512 0 282.324 229.676 512 512 512 250.596 0 459.586-181.032 503.426-419.15l-49.712-8.074c-39.904 214.194-228.108 376.91-453.714 376.91-254.532 0-461.62-207.090-461.62-461.654 0-254.532 207.088-461.62 461.62-461.62 17.050 0 33.864 0.968 50.446 2.802 0.1-6.106 0.802-12.212 2.236-18.35zM1067.64 513.192v-443.87c0-36.768-27.392-66.060-70.164-76.904-46.942-11.678-92.25 8.006-101.26 43.972-9.008 36.034 21.72 74.668 68.696 86.412 21.186 5.27 42.072 4.17 59.522-1.968v267.444l-239.986-43.84-1.1-332.736h-0.034c-0.234-31.462-28.626-62.424-69.496-72.534-46.376-11.678-94.952 10.376-100.158 43.406-8.942 35.632 21.486 73.9 67.928 85.544 20.918 5.138 41.338 4.104 58.52-1.902v393.892l327.532 53.082zM679.418 467.718v-39.368h-30.728c-2.47-13.512-6.774-26.324-12.912-38.436-6.172-12.11-13.946-22.822-23.388-32.264-9.408-9.442-20.152-17.216-32.264-23.322-12.078-6.206-24.89-10.476-38.434-12.978v-30.696h-39.336v30.696c-13.512 2.47-26.324 6.774-38.402 12.978-12.11 6.14-22.854 13.88-32.262 23.322-9.442 9.442-17.216 20.152-23.356 32.264-6.172 12.11-10.442 24.924-12.912 38.434h-30.762v39.37h30.728c2.468 13.512 6.774 26.324 12.912 38.402s13.914 22.854 23.356 32.262c9.408 9.442 20.152 17.25 32.262 23.356 12.078 6.172 24.89 10.442 38.402 12.946v30.728h39.336v-30.728c13.546-2.47 26.356-6.774 38.436-12.946 12.078-6.14 22.854-13.914 32.264-23.356 9.442-9.408 17.25-20.152 23.388-32.262 6.14-12.078 10.408-24.89 12.912-38.402h30.76zM502.392 534.078c-8.206-1.634-15.98-4.504-23.356-8.608s-13.914-9.042-19.652-14.714c-5.738-5.772-10.644-12.31-14.748-19.686-4.104-7.406-6.974-15.18-8.608-23.356h30.128c1.634 4.070 3.67 7.974 6.14 11.678s5.238 7.072 8.308 10.142c3.070 3.104 6.44 5.872 10.142 8.308 3.702 2.468 7.608 4.536 11.678 6.172v30.062zM435.998 428.35c1.634-8.206 4.504-15.98 8.608-23.356s9.008-13.914 14.748-19.684c5.738-5.74 12.278-10.61 19.652-14.712s15.18-6.972 23.356-8.608v30.094c-4.104 1.634-7.974 3.702-11.678 6.172-3.67 2.436-7.040 5.206-10.144 8.274-3.070 3.102-5.838 6.438-8.308 10.176-2.468 3.67-4.504 7.574-6.14 11.678h-30.094zM522.042 428.35c2.87 0 5.438 0.534 7.674 1.534 2.236 1.034 4.304 2.47 6.14 4.336 1.836 1.836 3.27 3.87 4.304 6.14s1.534 4.838 1.534 7.674-0.5 5.438-1.534 7.674-2.47 4.304-4.304 6.172c-1.836 1.834-3.904 3.27-6.14 4.304-2.27 1-4.838 1.536-7.674 1.536-2.87 0-5.438-0.534-7.674-1.536-2.236-1.034-4.304-2.468-6.14-4.304-1.868-1.868-3.302-3.904-4.304-6.172-1.034-2.236-1.536-4.838-1.536-7.674s0.534-5.438 1.536-7.674c1-2.236 2.436-4.304 4.304-6.14 1.834-1.868 3.904-3.302 6.14-4.336 2.236-1 4.804-1.534 7.674-1.534zM608.154 467.718c-1.668 8.174-4.538 15.98-8.64 23.356-4.070 7.372-9.008 13.914-14.712 19.686-5.772 5.704-12.312 10.61-19.684 14.712-7.408 4.104-15.182 6.974-23.388 8.608v-30.094c4.104-1.634 8.006-3.67 11.712-6.172 3.67-2.436 7.040-5.204 10.11-8.308 3.102-3.070 5.872-6.44 8.308-10.142 2.47-3.67 4.538-7.608 6.172-11.678h30.126zM541.726 361.988c8.206 1.634 15.98 4.504 23.388 8.608 7.374 4.104 13.914 9.008 19.684 14.712 5.74 5.804 10.644 12.312 14.712 19.684 4.104 7.408 6.972 15.148 8.64 23.356h-30.126c-1.634-4.104-3.67-7.974-6.172-11.678-2.436-3.702-5.206-7.072-8.308-10.176-3.068-3.068-6.438-5.84-10.11-8.274-3.702-2.47-7.606-4.538-11.712-6.172v-30.062z" horiz-adv-x="1068" />
<glyph unicode="&#x73;" d="M992.262 88.604l-242.552 206.294c-25.074 22.566-51.89 32.926-73.552 31.926 57.256 67.068 91.842 154.078 91.842 249.176 0 212.078-171.922 384-384 384s-384-171.922-384-384 171.922-384 384-384c95.098 0 182.108 34.586 249.176 91.844-1-21.662 9.36-48.478 31.926-73.552l206.294-242.552c35.322-39.246 93.022-42.554 128.22-7.356s31.892 92.898-7.354 128.22zM384 320c-141.384 0-256 114.616-256 256s114.616 256 256 256 256-114.616 256-256-114.614-256-256-256z" />
<glyph unicode="&#x74;" d="M1025 497l-202-224 29-297q-3-20-19-31.5t-36-7.5l-279 119-279-119q-20-4-36 8t-19 31l29 297-202 224q-9 17-2.5 36t23.5 28l298 64 154 258q14 14 34 14t34-14l154-258 298-64q17-9 23.5-28t-2.5-36z" />
<glyph unicode="&#x75;" d="M1025 497l-202-224 29-297q-3-20-19-31.5t-36-7.5l-279 119-279-119q-20-4-36 7.5t-19 31.5l29 297-202 224q-9 17-2.5 36t23.5 28l298 64 154 258q14 14 34 14t34-14l154-258 298-64q17-9 23.5-28t-2.5-36zM851 502l-204 45-106 180q-10 10-23.5 10t-23.5-10l-106-180-205-45q-12-7-16-20t2-25l141-160-16-200q2-15 10.5-25t20.5-8l192 84 192-84q13-2 21.5 8t10.5 25l-16 201 141 159q6 12 1.5 25t-16.5 20z" />
<glyph unicode="&#x76;" d="M1024 3.84c0 0-1.996 193.894-13.876 213.966-17.664 29.952-58.674 50.482-134.86 82.33-75.93 31.744-100.25 58.572-100.25 115.866 0 34.458 23.194 23.194 33.382 86.222 4.198 26.164 24.678 0.462 28.62 60.11 0 23.808-11.162 29.746-11.162 29.746s5.632 35.226 7.884 62.31c2.764 33.792-17.050 120.986-122.47 120.986s-125.134-87.246-122.418-120.986c2.202-27.086 7.834-62.31 7.834-62.31s-11.162-5.938-11.162-29.746c3.942-59.7 24.422-33.998 28.672-60.11 10.138-63.028 33.332-51.764 33.332-86.222 0-38.962-11.264-63.846-42.342-85.71 165.888-83.046 188.16-99.994 188.16-174.234v-152.218h230.656zM523.47 271.36c-101.324 42.29-133.632 78.028-133.632 154.47 0 45.876 30.926 30.926 44.492 114.996 5.582 34.866 32.974 0.562 38.144 80.128 0 31.744-14.9 39.63-14.9 39.63s7.578 46.95 10.548 83.098c3.686 44.954-22.734 161.28-163.276 161.28s-166.912-116.274-163.226-161.28c2.97-36.146 10.496-83.098 10.496-83.098s-14.848-7.884-14.848-39.63c5.274-79.616 32.564-45.312 38.194-80.128 13.568-84.070 44.492-69.070 44.492-114.996 0-76.442-32.41-112.178-133.632-154.47-30.874-12.902-86.322-32.922-86.322-80.948v-186.572h711.374c0 0 0 110.336 0 139.826 0 43.878-86.374 85.198-187.904 127.692z" />
<glyph unicode="&#x77;" d="M953.396 885.358l-4.028 4.042c-94.148 94.134-248.194 94.134-342.326 0l-218.106-218.136c-94.134-94.132-94.134-248.176 0-342.31l4.026-4.026c7.832-7.848 16.146-14.924 24.736-21.458l79.848 79.85c-9.302 5.494-18.126 12.072-26.116 20.060l-4.042 4.042c-51.114 51.098-51.114 134.272 0 185.39l218.128 218.112c51.116 51.118 134.274 51.118 185.386 0l4.042-4.024c51.1-51.116 51.1-134.292 0-185.39l-98.686-98.686c17.132-42.308 25.248-87.4 24.538-132.386l152.604 152.604c94.134 94.136 94.134 248.178-0.004 342.316zM631.042 571.066c-7.832 7.832-16.146 14.922-24.736 21.44l-79.848-79.832c9.304-5.496 18.126-12.074 26.116-20.062l4.042-4.040c51.116-51.116 51.116-134.272 0-185.388l-218.13-218.134c-51.118-51.102-134.276-51.102-185.388 0l-4.042 4.042c-51.098 51.12-51.098 134.276 0 185.388l98.688 98.686c-17.134 42.306-25.246 87.402-24.538 132.386l-152.602-152.598c-94.136-94.132-94.136-248.178 0-342.324l4.026-4.032c94.152-94.128 248.192-94.128 342.328 0l218.11 218.118c94.134 94.132 94.134 248.194 0 342.326l-4.026 4.024z" />
<glyph unicode="&#x78;" d="M1014.662 137.34c-0.004 0.004-0.008 0.008-0.012 0.010l-310.644 310.65 310.644 310.65c0.004 0.004 0.008 0.006 0.012 0.010 3.344 3.346 5.762 7.254 7.312 11.416 4.246 11.376 1.824 24.682-7.324 33.83l-146.746 146.746c-9.148 9.146-22.45 11.566-33.828 7.32-4.16-1.55-8.070-3.968-11.418-7.31 0-0.004-0.004-0.006-0.008-0.010l-310.648-310.652-310.648 310.65c-0.004 0.004-0.006 0.006-0.010 0.010-3.346 3.342-7.254 5.76-11.414 7.31-11.38 4.248-24.682 1.826-33.83-7.32l-146.748-146.748c-9.148-9.148-11.568-22.452-7.322-33.828 1.552-4.16 3.97-8.072 7.312-11.416 0.004-0.002 0.006-0.006 0.010-0.010l310.65-310.648-310.65-310.652c-0.002-0.004-0.006-0.006-0.008-0.010-3.342-3.346-5.76-7.254-7.314-11.414-4.248-11.376-1.826-24.682 7.322-33.83l146.748-146.746c9.15-9.148 22.452-11.568 33.83-7.322 4.16 1.552 8.070 3.97 11.416 7.312 0.002 0.004 0.006 0.006 0.010 0.010l310.648 310.65 310.648-310.65c0.004-0.002 0.008-0.006 0.012-0.008 3.348-3.344 7.254-5.762 11.414-7.314 11.378-4.246 24.684-1.826 33.828 7.322l146.746 146.748c9.148 9.148 11.57 22.454 7.324 33.83-1.552 4.16-3.97 8.068-7.314 11.414z" />
<glyph unicode="&#x79;" d="M0 640h1024l-64-640h-896l-64 640zM928 768l32-64h-896l64 128h352l32-64h416z" />
<glyph unicode="&#x7a;" d="M864 256c-45.16 0-85.92-18.738-115.012-48.83l-431.004 215.502c1.314 8.252 2.016 16.706 2.016 25.328s-0.702 17.076-2.016 25.326l431.004 215.502c29.092-30.090 69.852-48.828 115.012-48.828 88.366 0 160 71.634 160 160s-71.634 160-160 160-160-71.634-160-160c0-8.622 0.704-17.076 2.016-25.326l-431.004-215.504c-29.092 30.090-69.852 48.83-115.012 48.83-88.366 0-160-71.636-160-160 0-88.368 71.634-160 160-160 45.16 0 85.92 18.738 115.012 48.828l431.004-215.502c-1.312-8.25-2.016-16.704-2.016-25.326 0-88.368 71.634-160 160-160s160 71.632 160 160c0 88.364-71.634 160-160 160z" />
<glyph unicode="&#x7e;" d="M992 576h-352v352c0 17.672-14.328 32-32 32h-192c-17.672 0-32-14.328-32-32v-352h-352c-17.672 0-32-14.328-32-32v-192c0-17.672 14.328-32 32-32h352v-352c0-17.672 14.328-32 32-32h192c17.672 0 32 14.328 32 32v352h352c17.672 0 32 14.328 32 32v192c0 17.672-14.328 32-32 32z" />
<glyph unicode="&#xe600;" d="M64 768h896v-192h-896zM64 512h896v-192h-896zM64 256h896v-192h-896z" />
<glyph unicode="&#xe602;" d="M0 576h704v-128h-704v128zM0 768h704v-128h-704v128zM0 384h704v-128h-704v128zM0 192h704v-128h-704v128zM768 384l128-192 128 192h-256zM1024 448l-128 192-128-192h256z" />
<glyph unicode="&#xe603;" d="M819.2 512h-614.4c-28.262 0-51.2-22.938-51.2-51.2s22.938-51.2 51.2-51.2h614.4c28.314 0 51.2 22.938 51.2 51.2s-22.886 51.2-51.2 51.2zM204.8 614.4h614.4c28.314 0 51.2 22.938 51.2 51.2s-22.886 51.2-51.2 51.2h-614.4c-28.262 0-51.2-22.938-51.2-51.2s22.938-51.2 51.2-51.2zM819.2 307.2h-614.4c-28.262 0-51.2-22.886-51.2-51.2s22.938-51.2 51.2-51.2h614.4c28.314 0 51.2 22.886 51.2 51.2s-22.886 51.2-51.2 51.2z" />
</font>
</defs>
</svg>
